<svg width="19" height="22" viewBox="0 0 26 31" fill="none" xmlns="http://www.w3.org/2000/svg">
<path d="M25.0831 30.3167H21.8693C21.3213 30.3433 20.7748 30.2397 20.2746 30.0145C20.0556 29.8763 19.8661 29.6962 19.717 29.4845C19.5679 29.2728 19.4623 29.0338 19.406 28.781L18.7666 26.6651C18.0637 27.3026 17.3235 27.8978 16.55 28.4475C15.845 28.9492 15.0933 29.382 14.3055 29.74C13.5163 30.0922 12.69 30.3544 11.8422 30.5217C10.8871 30.7032 9.91656 30.7905 8.94447 30.7823C7.76684 30.7936 6.59464 30.6212 5.47006 30.2716C4.45957 29.9632 3.52633 29.4432 2.73226 28.7463C1.95432 28.049 1.34483 27.1841 0.949846 26.2169C0.502448 25.0986 0.285077 23.9016 0.310608 22.6973C0.321919 21.5311 0.626536 20.3864 1.19652 19.3689C1.9081 18.1469 2.91989 17.1268 4.13594 16.4052C5.83465 15.388 7.68396 14.6468 9.61501 14.2094C11.9012 13.6396 14.7294 13.3547 18.0996 13.3547V11.6174C18.0996 9.61387 17.6791 8.12914 16.8383 7.16325C15.9975 6.19737 14.7758 5.71558 13.1729 5.7179C12.1894 5.68078 11.2066 5.80759 10.2648 6.09313C9.56548 6.33004 8.89156 6.63615 8.25307 7.0069C7.68326 7.35435 7.15514 7.64967 6.67219 7.9172C6.18616 8.18884 5.63773 8.32895 5.08097 8.32371C4.63579 8.33506 4.19864 8.20356 3.83363 7.94847C3.49155 7.70147 3.20513 7.38544 2.99284 7.0208L1.68994 4.73116C5.11571 1.59956 9.24792 0.0349174 14.0866 0.0372337C15.6788 0.00983308 17.2604 0.300408 18.7388 0.891939C20.0546 1.42469 21.2397 2.23533 22.2132 3.26844C23.1801 4.31519 23.9164 5.55332 24.3744 6.90267C24.8783 8.39653 25.1273 9.96453 25.1109 11.541L25.0831 30.3167ZM11.1855 25.8556C11.8671 25.8614 12.5474 25.7939 13.2145 25.6541C13.8156 25.5258 14.399 25.3252 14.9517 25.0565C15.5149 24.7829 16.0492 24.4535 16.5465 24.0732C17.0958 23.6478 17.6136 23.1833 18.0961 22.6835V17.7116C16.3447 17.6849 14.5945 17.8174 12.8671 18.1077C11.7027 18.2968 10.5676 18.6354 9.48998 19.1152C8.76815 19.4181 8.1424 19.9117 7.67982 20.5432C7.32834 21.0697 7.14202 21.6891 7.14475 22.3221C7.14475 23.5868 7.5165 24.4925 8.26002 25.0391C9.1174 25.6209 10.14 25.9098 11.1751 25.8625L11.1855 25.8556Z" stroke="#C4C4C4"/>
</svg>
