<svg width="19" height="22" viewBox="0 0 19 22" fill="none" xmlns="http://www.w3.org/2000/svg">
<path d="M17.8312 20.7908H17.1634H15.2144C14.7798 20.8091 14.3469 20.7257 13.9502 20.5471L13.9075 20.5279L13.8679 20.5029C13.6595 20.3714 13.4792 20.2 13.3373 19.9985C13.2006 19.8045 13.1023 19.5863 13.0474 19.3558L12.9576 19.0588C12.7544 19.2193 12.5472 19.3747 12.336 19.5248M17.8312 20.7908L7.3006 20.4065L7.29495 21.0753C7.29696 21.0753 7.29897 21.0753 7.30099 21.0753C7.93683 21.0803 8.57165 21.023 9.19634 20.9043L9.19634 20.9043L9.20094 20.9034C9.76834 20.7914 10.3213 20.6159 10.8494 20.3802L10.8494 20.3803L10.8535 20.3784C11.3738 20.142 11.8703 19.8561 12.336 19.5248M17.8312 20.7908L17.8322 20.123L17.8491 8.65455C17.8491 8.65354 17.8491 8.65253 17.8492 8.65152C17.8596 7.6141 17.6956 6.58229 17.364 5.59921L17.3636 5.59804C17.0536 4.68472 16.5552 3.8467 15.9008 3.13822L15.9008 3.1382L15.8963 3.13335C15.2353 2.4319 14.4306 1.88149 13.5372 1.51976L13.5372 1.51976L13.5346 1.51873C12.5504 1.12492 11.4975 0.931094 10.4376 0.948542L17.8312 20.7908ZM12.336 19.5248L11.9486 18.9797L12.3363 19.5246C12.3362 19.5246 12.3361 19.5247 12.336 19.5248ZM13.3032 17.8904C13.1225 18.0543 12.9377 18.2137 12.749 18.3683L13.3032 17.8904ZM8.67587 16.727L8.46908 16.7252L8.45734 16.7331C8.03442 16.7195 7.62252 16.5877 7.26917 16.351C7.04891 16.1842 6.86948 15.8724 6.86949 15.2363L6.86948 15.2334C6.8684 14.9844 6.94031 14.7407 7.07616 14.5322C7.2862 14.25 7.56816 14.0293 7.89271 13.8931L7.89937 13.8903L7.90597 13.8874C8.51198 13.6176 9.15028 13.4271 9.80506 13.3208L9.80506 13.3208L9.80864 13.3202C10.6077 13.1859 11.4152 13.109 12.2247 13.09V15.1808C12.0073 15.3918 11.7783 15.5907 11.5387 15.7764C11.2707 15.9811 10.9829 16.1584 10.6796 16.3058L10.6795 16.3059C10.3907 16.4462 10.086 16.5511 9.77196 16.6182C9.41156 16.6937 9.04407 16.7301 8.67587 16.727Z" stroke="#F2F2F2" stroke-width="1.3375"/>
</svg>
