<svg width="16.58" height="18.72" viewBox="0 0 28 32" fill="none" xmlns="http://www.w3.org/2000/svg">
<path d="M14.5781 0.917859C16.3429 0.898384 18.0962 1.20219 19.7515 1.81426C21.2817 2.38558 22.6707 3.28033 23.8235 4.43744C25 5.64461 25.9081 7.08671 26.4884 8.66927C27.1544 10.5022 27.4782 12.4418 27.4439 14.3916C27.4483 14.842 27.425 15.2922 27.3743 15.7397C27.3461 16.0354 27.2562 16.3218 27.1103 16.5805C26.9943 16.7764 26.8174 16.9289 26.6065 17.0148C26.3461 17.1086 26.0702 17.1522 25.7936 17.1434H7.42082C7.6316 20.1962 8.45275 22.4372 9.88421 23.8664C11.3157 25.2955 13.2092 26.0101 15.5648 26.0101C16.5791 26.0315 17.5906 25.8955 18.5633 25.607C19.3218 25.3702 20.0587 25.0692 20.7661 24.7072C21.395 24.3806 21.9439 24.0783 22.4164 23.8108C22.8356 23.5549 23.3152 23.4146 23.8062 23.4043C24.0672 23.3965 24.3256 23.4564 24.5566 23.578C24.775 23.6995 24.9637 23.868 25.1091 24.0713L27.1938 26.6772C26.4267 27.5838 25.5285 28.3708 24.5288 29.012C23.561 29.6293 22.5259 30.134 21.4436 30.5164C20.3809 30.8914 19.2832 31.1591 18.1672 31.3155C17.0966 31.4657 16.0171 31.5423 14.936 31.5448C12.9665 31.5593 11.0116 31.2058 9.17194 30.5025C7.42366 29.8375 5.84093 28.8001 4.53357 27.4624C3.17071 26.0349 2.11794 24.341 1.44137 22.487C0.649577 20.2805 0.26692 17.948 0.312188 15.6042C0.298012 13.6535 0.630978 11.7159 1.29547 9.88184C1.91672 8.15379 2.87705 6.56733 4.12013 5.21571C5.38586 3.87465 6.91538 2.81 8.61252 2.08874C10.4988 1.29045 12.5301 0.891768 14.5781 0.917859ZM14.724 6.04609C12.6394 6.04609 11.0076 6.63558 9.82857 7.81457C8.64958 8.99355 7.89563 10.6647 7.56672 12.8281H21.0128C21.0191 11.9397 20.8914 11.0553 20.634 10.205C20.3997 9.41326 20.006 8.67784 19.477 8.04388C18.9384 7.41471 18.2651 6.91478 17.5071 6.58115C16.6281 6.20657 15.6792 6.02414 14.724 6.04609Z" stroke-width="2" stroke="#F2F2F2"/>
</svg>
