<svg width="21" height="22" viewBox="0 0 21 22" fill="none" xmlns="http://www.w3.org/2000/svg">
<path d="M7.28105 12.2016H17.7603C18.0099 12.2081 18.2584 12.1681 18.4934 12.0835L18.5063 12.0788L18.519 12.0737C18.7832 11.9661 19.0048 11.775 19.1501 11.5296L19.1537 11.5235L19.1572 11.5173C19.2912 11.2795 19.3743 11.0165 19.4011 10.7449C19.4344 10.4491 19.4499 10.1516 19.4473 9.85383C19.4686 8.58347 19.257 7.31993 18.8232 6.12571L18.8225 6.12384C18.4354 5.06823 17.8296 4.10632 17.0449 3.30113L17.045 3.3011L17.0397 3.29586C16.2673 2.52057 15.3367 1.92106 14.3114 1.53826L14.3114 1.53825L14.3094 1.53752C13.2237 1.13607 12.0739 0.936348 10.9164 0.948152C9.5751 0.93216 8.24487 1.19379 7.00945 1.71664L7.00853 1.71703C5.88643 2.19391 4.87517 2.89781 4.03832 3.78447L4.03828 3.78443L4.03243 3.79079C3.2126 4.68221 2.5792 5.72846 2.16939 6.86809C1.73748 8.06047 1.52055 9.32002 1.52872 10.5882C1.50061 12.0989 1.74778 13.6021 2.25814 15.0244L2.25813 15.0244L2.25936 15.0278C2.70445 16.2474 3.39704 17.3618 4.29363 18.3009L4.2936 18.3009L4.29905 18.3065C5.16571 19.1933 6.2149 19.881 7.37382 20.3219C7.37395 20.322 7.37408 20.322 7.37421 20.3221L7.61197 19.697C8.73626 20.1268 9.93096 20.3429 11.1346 20.334M7.28105 12.2016L11.1376 21.0028M7.28105 12.2016C7.4695 13.5935 7.90554 14.555 8.51976 15.1682C9.24853 15.8958 10.2249 16.2828 11.5189 16.2828H11.533L11.533 16.283C12.0822 16.2946 12.6299 16.2212 13.1566 16.0655C13.5816 15.9325 13.9946 15.7637 14.3911 15.5609C14.7622 15.3681 15.087 15.1894 15.3679 15.0305C15.7217 14.8169 16.1253 14.6997 16.5386 14.6905C16.8123 14.6829 17.0833 14.7459 17.3256 14.8735L17.3324 14.8771L17.3393 14.8809C17.5533 15 17.739 15.1639 17.8838 15.3613L19.1479 16.9415L19.4916 17.3711L19.1362 17.7912C18.6244 18.3961 18.0251 18.9212 17.3581 19.349L17.3567 19.3499C16.7223 19.7546 16.0438 20.0854 15.3343 20.3361L15.3341 20.3361C14.6425 20.5802 13.9283 20.7544 13.202 20.8561M11.1346 20.334L11.1361 21.0028C11.1366 21.0028 11.1371 21.0028 11.1376 21.0028M11.1346 20.334L11.1395 21.0027C11.1389 21.0027 11.1383 21.0027 11.1376 21.0028M11.1346 20.334C11.7952 20.3325 12.455 20.2857 13.1092 20.1939M11.1376 21.0028C11.8283 21.0011 12.518 20.9521 13.202 20.8561M13.1092 20.1939L13.202 20.8561M13.1092 20.1939C13.7913 20.0983 14.4621 19.9347 15.1116 19.7055M13.1092 20.1939L13.2022 20.8561C13.2021 20.8561 13.2021 20.8561 13.202 20.8561" stroke="#F2F2F2" stroke-width="1.3375"/>
</svg>
