<svg width="27" height="30" viewBox="0 0 27 30" fill="none" xmlns="http://www.w3.org/2000/svg">
<path d="M25.8262 26.8675L25.3788 27.2379C24.6651 27.8288 23.8455 28.2784 22.9636 28.5627C22.0675 28.8565 21.1301 29.0052 20.187 29.0031M25.8262 26.8675L15.2828 23.3042M25.8262 26.8675L25.5222 26.3727L24.2057 24.2302L24.1946 24.2122L24.1824 24.1949C24.0748 24.0424 23.9491 23.9036 23.808 23.7815L23.7864 23.7629L23.7634 23.7462C23.5505 23.5916 23.2922 23.5125 23.0294 23.5212M25.8262 26.8675L23.0294 23.5212M20.187 29.0031C18.4876 29.003 17.0821 28.5162 16.0729 27.4583C15.0733 26.4105 14.6125 24.9965 14.614 23.3036M20.187 29.0031C20.1872 29.0031 20.1874 29.0031 20.1877 29.0031V28.3344M20.187 29.0031C20.1867 29.0031 20.1864 29.0031 20.1861 29.0031L20.1877 28.3344M14.614 23.3036L15.2828 23.3042M14.614 23.3036V23.3042H15.2828M14.614 23.3036V13.8256M15.2828 23.3042V13.8256H14.614M14.614 13.8256H9.75356M14.614 13.8256V13.1569M14.614 13.1569H9.75356V13.8256M14.614 13.1569L20.1877 28.3344M14.614 13.1569L23.0294 23.5212M9.75356 13.8256H9.08481V27.3811V28.0499H8.41606H5.37955H4.7108V27.3811V13.1739M9.75356 13.8256V28.0499V28.7186H9.08481H4.7108H4.04205V28.0499V13.7462M4.7108 13.1739L3.13526 12.9276M4.7108 13.1739H4.04205V13.7462M4.7108 13.1739L4.60751 13.8346L4.04205 13.7462M3.13526 12.9276C2.83358 12.8862 2.54883 12.7637 2.31144 12.573C2.20701 12.4806 2.12485 12.3657 2.07116 12.237C2.01747 12.1083 1.99366 11.9691 2.00144 11.8298M3.13526 12.9276L3.03197 13.5883L3.03769 13.5892M3.13526 12.9276L3.04449 13.5901C3.04222 13.5898 3.03996 13.5895 3.03769 13.5892M2.00144 11.8298V10.7086V10.0399H2.67019H4.04205V9.37111M2.00144 11.8298L1.33373 11.7925C1.33334 11.7996 1.33299 11.8066 1.33269 11.8137M2.00144 11.8298H1.33269V11.8137M4.04205 9.37111H4.7108V8.69368M4.04205 9.37111V8.69866M4.04205 9.37111H2.00144H1.33269V10.0399V11.8137M4.7108 8.69368C4.69632 7.7408 4.85531 6.79323 5.18004 5.89727C5.47052 5.10512 5.92984 4.38566 6.5262 3.78881C7.12943 3.1978 7.85393 2.74499 8.64952 2.46174C9.55906 2.14207 10.5181 1.98607 11.482 2.00098M4.7108 8.69368H4.04205V8.69866M4.7108 8.69368L4.04213 8.70384C4.0421 8.70211 4.04207 8.70039 4.04205 8.69866M11.482 2.00098C12.273 1.99458 13.0605 2.10768 13.8177 2.33646L13.7307 4.53197M11.482 2.00098L11.4924 1.33231C11.4898 1.33226 11.4871 1.33223 11.4845 1.33219M11.482 2.00098L11.4766 1.33225C11.4793 1.33223 11.4819 1.33221 11.4845 1.33219M13.7307 4.53197C13.7351 4.67691 13.69 4.81904 13.6027 4.93486M13.7307 4.53197L14.3989 4.55846L14.3996 4.53911M13.7307 4.53197L14.3991 4.51139C14.3994 4.52064 14.3996 4.52988 14.3996 4.53911M13.6027 4.93486C13.5155 5.05068 13.3913 5.13327 13.2508 5.16897M13.6027 4.93486L14.1369 5.33725C13.9585 5.57407 13.7048 5.74314 13.4175 5.81661M13.6027 4.93486L14.1369 5.33725C14.3101 5.10728 14.4024 4.82665 14.3996 4.53911M13.2508 5.16897C12.9161 5.25624 12.5711 5.29767 12.2252 5.29212M13.2508 5.16897L13.4154 5.81714C13.4161 5.81696 13.4168 5.81679 13.4175 5.81661M13.2508 5.16897L13.4195 5.81608C13.4188 5.81626 13.4181 5.81644 13.4175 5.81661M12.2252 5.29212C11.7562 5.28546 11.2884 5.34188 10.8344 5.45986M12.2252 5.29212L12.2145 5.96078C12.2147 5.96079 12.2149 5.96079 12.2151 5.9608M12.2252 5.29212L12.2157 5.9608C12.2155 5.9608 12.2153 5.9608 12.2151 5.9608M10.8344 5.45986C10.4442 5.56243 10.0872 5.76434 9.79826 6.0459M10.8344 5.45986L11.0026 6.10711C11.0029 6.10704 11.0032 6.10696 11.0035 6.10688M10.8344 5.45986L11.0044 6.10664C11.0041 6.10672 11.0038 6.1068 11.0035 6.10688M9.79826 6.0459C9.4998 6.35456 9.28115 6.73137 9.16127 7.14366M9.79826 6.0459L10.265 6.52488C10.2673 6.52259 10.2697 6.5203 10.272 6.51802M9.79826 6.0459L10.279 6.51077C10.2767 6.51318 10.2744 6.5156 10.272 6.51802M9.16127 7.14366C9.00338 7.69555 8.93175 8.26853 8.94894 8.84231V9.37111H9.61769M9.16127 7.14366L9.80342 7.33037C9.80356 7.3299 9.8037 7.32943 9.80384 7.32896M9.16127 7.14366L9.80422 7.3276C9.80409 7.32805 9.80396 7.32851 9.80384 7.32896M9.61769 9.37111V10.0399H15.3974M9.61769 9.37111H14.9424M9.61769 9.37111V8.84231V8.8323L9.61739 8.82229C9.60228 8.31788 9.66517 7.81417 9.80384 7.32896M15.3974 10.0399L15.5015 10.0229M15.3974 10.0399L15.3913 10.0024L14.844 9.90067L14.9424 9.37111M15.3974 10.0399V10.0035L15.5015 10.0229M15.5015 10.0229L16.423 5.06493M15.5015 10.0229L15.3974 9.38561V9.37111H15.3951L15.3937 9.36287L15.3432 9.37111H14.9424M16.423 5.06493C16.4578 4.8466 16.5748 4.64986 16.75 4.51499C16.9353 4.38195 17.159 4.31333 17.387 4.31964M16.423 5.06493L15.7655 4.94272L15.7642 4.94992M16.423 5.06493L15.7626 4.95956C15.7631 4.95635 15.7636 4.95313 15.7642 4.94992M17.387 4.31964H18.9859H19.6547V4.98839V9.37111H20.3234M17.387 4.31964L17.4055 3.65115C17.4021 3.65105 17.3986 3.65097 17.3951 3.65089M17.387 4.31964V3.65089H17.3951M20.3234 9.37111V10.0399H23.7634H24.4322V10.7086V12.4881V13.1569H23.7634H20.3192V13.8256M20.3234 9.37111H24.4322H25.1009V10.0399V13.1569V13.8256H24.4322H20.3192M20.3234 9.37111V4.31964V3.65089H19.6547H17.3951M20.3192 13.8256H19.6504V23.0027C19.6219 23.4832 19.7733 23.957 20.0751 24.3319C20.2172 24.4902 20.3926 24.615 20.5886 24.6976C20.7846 24.7802 20.9965 24.8185 21.209 24.8097C21.4401 24.8162 21.6706 24.7831 21.8906 24.712C22.055 24.6535 22.2147 24.5825 22.3683 24.4997C22.5099 24.4303 22.6309 24.3595 22.7314 24.2873C22.8266 24.2262 22.9368 24.1924 23.0499 24.1897M20.3192 13.8256V23.0027V23.0226L20.318 23.0424C20.2997 23.3506 20.3945 23.6547 20.5842 23.8977C20.6584 23.9766 20.7483 24.0392 20.8483 24.0813C20.9535 24.1257 21.0672 24.1462 21.1813 24.1415L21.2045 24.1405L21.2278 24.1412C21.3796 24.1455 21.5311 24.1243 21.6759 24.0785C21.8049 24.0321 21.9303 23.9761 22.051 23.911L22.0624 23.9049L22.074 23.8991C22.1907 23.842 22.2779 23.7897 22.3412 23.7442L22.3555 23.734L22.3702 23.7245C22.5674 23.598 22.7953 23.5277 23.0294 23.5212M23.0499 24.1897C23.1647 24.1855 23.2776 24.2199 23.3705 24.2873C23.4705 24.3739 23.5597 24.4723 23.6359 24.5804L24.9524 26.7228C24.3036 27.2599 23.5585 27.6685 22.7569 27.9267C21.9277 28.1987 21.0603 28.3364 20.1877 28.3344M23.0499 24.1897L23.0334 23.5211C23.0321 23.5212 23.0307 23.5212 23.0294 23.5212M23.0499 24.1897L23.0255 23.5214C23.0268 23.5213 23.0281 23.5213 23.0294 23.5212M17.3951 3.65089C17.0245 3.64288 16.6612 3.75544 16.3599 3.9718L16.3509 3.9783L16.342 3.9851C16.0342 4.22209 15.8278 4.56691 15.7642 4.94992M15.7642 4.94992L14.9424 9.37111M9.80384 7.32896C9.89249 7.02491 10.0531 6.74676 10.272 6.51802M10.272 6.51802C10.4768 6.32087 10.7286 6.17932 11.0035 6.10688M11.0035 6.10688C11.399 6.00418 11.8066 5.95505 12.2151 5.9608M12.2151 5.9608C12.6206 5.96724 13.025 5.91874 13.4175 5.81661M14.3996 4.53911L14.4859 2.36295L14.5064 1.84594L14.0111 1.69629C13.1919 1.4488 12.3402 1.32606 11.4845 1.33219M11.4845 1.33219C10.4442 1.31703 9.40937 1.48583 8.42777 1.83082L8.42777 1.83081L8.42521 1.83172C7.53831 2.14748 6.73065 2.65227 6.05818 3.31112L6.05816 3.31109L6.05312 3.31613C5.38818 3.98162 4.87604 4.78381 4.55218 5.66703L4.55217 5.66703L4.55132 5.66939C4.19953 6.64 4.02699 7.66641 4.04205 8.69866M1.33269 11.8137C1.32278 12.0466 1.36408 12.279 1.45396 12.4944C1.54655 12.7164 1.6882 12.9144 1.86818 13.0737L1.88016 13.0843L1.89263 13.0944C2.22275 13.3595 2.61839 13.5305 3.03769 13.5892M3.03769 13.5892L4.04205 13.7462" stroke="#F2F2F2" stroke-width="1.3375"/>
</svg>
