<svg width="26" height="30" viewBox="0 0 38 44" fill="none" xmlns="http://www.w3.org/2000/svg">
<path d="M37.8375 40.8336C36.776 41.7124 35.5568 42.381 34.245 42.8036C32.8882 43.2487 31.4689 43.4739 30.0409 43.4707C27.4722 43.4707 25.4917 42.741 24.0997 41.2818C22.7076 39.8225 22.0127 37.8085 22.015 35.2398V18.6356H11.8732V43.0051H4.71599V18.6634L2.13791 18.2603C1.64427 18.1927 1.17833 17.9921 0.789882 17.6801C0.619012 17.5288 0.484573 17.3409 0.39672 17.1303C0.308868 16.9197 0.269896 16.6919 0.282631 16.464V13.5351H4.71599V11.3323C4.69229 9.77313 4.95246 8.22261 5.48382 6.75654C5.95912 5.46034 6.71071 4.28308 7.68654 3.30645C8.67362 2.33937 9.85913 1.59842 11.161 1.13494C12.6493 0.611864 14.2185 0.356603 15.7958 0.380991C17.0902 0.370527 18.3787 0.555601 19.6177 0.929949L19.4753 4.52249C19.4826 4.75966 19.4087 4.99222 19.2659 5.18174C19.1232 5.37126 18.92 5.5064 18.6901 5.56481C18.1424 5.70761 17.5778 5.77541 17.0119 5.76633C16.2444 5.75544 15.479 5.84776 14.7361 6.04081C14.0976 6.20865 13.5135 6.53902 13.0407 6.99975C12.5523 7.50481 12.1945 8.12139 11.9983 8.79602C11.74 9.69909 11.6228 10.6367 11.6509 11.5755V13.5351H22.2026L22.3729 13.5073L23.8808 5.39457C23.9378 5.03733 24.1292 4.71539 24.4159 4.4947C24.719 4.277 25.0852 4.16472 25.4582 4.17505H29.1689V13.5351H36.9863V18.6356H29.1619V34.7464C29.1152 35.5326 29.3629 36.3079 29.8568 36.9214C30.0894 37.1803 30.3763 37.3846 30.6971 37.5198C31.0178 37.6549 31.3644 37.7175 31.7122 37.7031C32.0903 37.7138 32.4675 37.6597 32.8274 37.5433C33.0965 37.4475 33.3578 37.3314 33.6092 37.1959C33.8408 37.0824 34.0388 36.9666 34.2033 36.8484C34.3591 36.7484 34.5394 36.6932 34.7244 36.6886C34.9123 36.6817 35.097 36.738 35.2491 36.8484C35.4128 36.99 35.5586 37.151 35.6834 37.3279L37.8375 40.8336Z" stroke="#C4C4C4"/>
</svg>
