<svg width="29" height="22" viewBox="0 0 43 31" fill="none" xmlns="http://www.w3.org/2000/svg">
<path d="M0.355469 30.7051V0.974589H4.72978C5.13851 0.944709 5.54487 1.05856 5.87856 1.29646C6.21226 1.53436 6.45232 1.88136 6.55733 2.27749L7.01945 4.48027C7.53112 3.91495 8.0789 3.38341 8.65937 2.88899C9.22196 2.4104 9.83335 1.99233 10.4834 1.64168C11.1449 1.28834 11.8442 1.01094 12.5681 0.814766C13.362 0.607612 14.1797 0.505979 15.0002 0.512492C16.8764 0.512492 18.4179 1.01976 19.6246 2.03428C20.8755 3.11174 21.8108 4.50819 22.3311 6.07503C22.7625 5.13735 23.3499 4.27972 24.0683 3.53871C24.7391 2.8469 25.5111 2.26113 26.358 1.8015C27.1937 1.35575 28.0852 1.02389 29.0089 0.814766C29.9358 0.604464 30.8833 0.498415 31.8337 0.498595C33.3263 0.471249 34.8106 0.72708 36.208 1.25254C37.4387 1.72205 38.541 2.47561 39.4253 3.45185C40.3284 4.47789 41.0045 5.68321 41.4092 6.9888C41.8916 8.53575 42.1261 10.1493 42.1041 11.7696V30.7051H34.9467V11.7835C34.9467 9.89109 34.5321 8.46658 33.7029 7.50996C32.8736 6.55334 31.6564 6.07503 30.0513 6.07503C29.3526 6.06861 28.6592 6.19598 28.0083 6.45026C27.39 6.69679 26.8285 7.06682 26.358 7.53775C25.8625 8.04551 25.4811 8.65317 25.2393 9.32013C24.9584 10.1105 24.8219 10.9449 24.8363 11.7835V30.7051H17.6546V11.7835C17.6546 9.79381 17.2539 8.34498 16.4524 7.437C15.651 6.52902 14.4651 6.07503 12.8947 6.07503C11.8825 6.07207 10.8876 6.33698 10.0109 6.84287C9.06238 7.3974 8.2143 8.10806 7.50236 8.94489V30.7051H0.355469Z" stroke-width="3" stroke="#C4C4C4"/>
</svg>
