<svg width="29" height="22" viewBox="0 0 29 22" fill="none" xmlns="http://www.w3.org/2000/svg">
<path d="M0.75459 21.0027V20.3339V2.16466V1.49591H1.42334H4.07515C4.47116 1.4732 4.86344 1.58624 5.18689 1.81683C5.51778 2.05274 5.7558 2.39681 5.85991 2.78955L5.86439 2.80647L5.86799 2.8236L5.89861 2.96955C5.95343 2.92102 6.00872 2.873 6.06447 2.82551L6.06479 2.82524C6.44434 2.50236 6.8568 2.22032 7.29537 1.98376L7.29776 1.98247L7.29776 1.98247C7.74649 1.74278 8.22089 1.5546 8.71191 1.42153L8.71799 1.41988L8.71799 1.41991C9.25916 1.2787 9.81655 1.20931 10.3758 1.21351C11.6474 1.214 12.7503 1.56111 13.6297 2.30039L13.6358 2.30554L13.6358 2.30558C14.1513 2.74962 14.5885 3.27283 14.9325 3.85299C15.0874 3.64753 15.2551 3.45152 15.4349 3.26617L0.75459 21.0027ZM0.75459 21.0027H1.42334M0.75459 21.0027H1.42334M1.42334 21.0027H5.79102H6.45977V20.3339V7.28991C6.81068 6.91337 7.21489 6.58965 7.65986 6.32928C8.09303 6.07968 8.5845 5.94898 9.08447 5.95045H9.08642C9.91492 5.95045 10.4317 6.18543 10.7593 6.55658C11.0905 6.93175 11.3266 7.6194 11.3266 8.77031V20.3339V21.0027H11.9954H16.3843H17.053V20.3339V8.77031H17.0531L17.0529 8.75891C17.0456 8.32724 17.1157 7.89778 17.26 7.49092C17.3749 7.17478 17.5556 6.88663 17.7902 6.6455C18.0123 6.42388 18.277 6.24956 18.5684 6.13306C18.886 6.00928 19.2243 5.94729 19.5652 5.95042V5.95045H19.5713C20.4143 5.95045 20.9504 6.19611 21.2976 6.59666C21.6576 7.01188 21.8944 7.69755 21.8944 8.77031V20.3339V21.0027H22.5631H26.9372H27.6059V20.3339V8.76621C27.6199 7.70722 27.4664 6.65268 27.1511 5.64158C26.8759 4.7539 26.4162 3.93439 25.8021 3.23675L25.8022 3.2367L25.7958 3.22964C25.1846 2.55496 24.4228 2.03418 23.5723 1.70971L23.5723 1.7097M1.42334 21.0027L23.5723 1.7097M16.9995 2.07994L16.9995 2.07996C17.5628 1.77951 18.1637 1.55581 18.7864 1.41482L16.9995 2.07994ZM16.9995 2.07994L16.9953 2.08225M16.9995 2.07994L16.9953 2.08225M16.9953 2.08225C16.4181 2.39549 15.892 2.79469 15.4349 3.26616L16.9953 2.08225ZM23.5723 1.7097L23.5693 1.70857M23.5723 1.7097L23.5693 1.70857M23.5693 1.70857C22.6382 1.35843 21.6492 1.18758 20.6546 1.20502M23.5693 1.70857L20.6546 1.20502M20.6546 1.20502C20.0261 1.20536 19.3996 1.2757 18.7867 1.41475L20.6546 1.20502Z" stroke="#F2F2F2" stroke-width="1.3375"/>
</svg>
