<svg width="58" height="67" viewBox="0 0 58 67" fill="none" xmlns="http://www.w3.org/2000/svg">
<path d="M6.5835 62.3263L7.55255 61.0049L6.5835 62.3263ZM4.7835 38.8263L3.53932 37.7599L4.7835 38.8263ZM16.2835 30.1263L17.0401 31.5798L19.0225 30.5479L17.4422 28.9676L16.2835 30.1263ZM9.6835 22.8263L8.40023 23.8454L9.6835 22.8263ZM11.0835 4.52631L9.92478 3.3676H9.92478L11.0835 4.52631ZM34.3835 4.22632L33.2541 5.41363L34.3835 4.22632ZM35.5835 23.7263L34.2938 22.7154L35.5835 23.7263ZM27.2835 31.2263L26.3405 29.8862L24.7616 30.9973L26.1144 32.3746L27.2835 31.2263ZM43.8835 48.1263L42.7145 49.2746L44.3801 50.9704L45.3725 48.8105L43.8835 48.1263ZM45.5835 37.3263V35.6876H43.9448V37.3263H45.5835ZM52.0835 37.3263H53.7222V35.6876H52.0835V37.3263ZM51.1835 46.3263L52.7757 46.7136V46.7136L51.1835 46.3263ZM48.5835 52.7263L47.1968 51.8532L46.5038 52.9539L47.4184 53.8786L48.5835 52.7263ZM57.5835 61.8263L58.6797 63.0443L59.9564 61.8953L58.7486 60.674L57.5835 61.8263ZM52.5835 66.3263L51.4321 67.4923L52.5314 68.5778L53.6797 67.5443L52.5835 66.3263ZM44.5835 58.4263L45.7349 57.2603L44.4514 55.9928L43.3126 57.3919L44.5835 58.4263ZM35.4835 64.7263L34.9324 63.1831L35.4835 64.7263ZM22.1835 27.2263L21.0557 28.4151L21.9706 29.2832L23.044 28.6209L22.1835 27.2263ZM29.2835 21.7263L30.4876 22.8378L30.498 22.8265L30.5083 22.815L29.2835 21.7263ZM29.5835 8.92632L28.3469 10.0016L28.3719 10.0303L28.3982 10.0578L29.5835 8.92632ZM15.8835 9.02631L14.6755 7.91902L14.6627 7.93298L14.6503 7.94724L15.8835 9.02631ZM15.9835 20.8263L14.7131 21.8614L14.7245 21.8753L14.7361 21.8889L15.9835 20.8263ZM32.4835 59.1263L33.1111 60.64L33.1201 60.6363L33.129 60.6325L32.4835 59.1263ZM39.5835 53.8263L40.8453 54.8718L41.7871 53.7352L40.7547 52.6802L39.5835 53.8263ZM21.2835 35.1263L22.4547 33.9802L21.6463 33.1541L20.5968 33.6385L21.2835 35.1263ZM11.5835 41.6263L10.3741 40.5206L10.3726 40.5223L11.5835 41.6263ZM12.4835 58.2263L11.5667 59.5845L11.5785 59.5925L11.5904 59.6003L12.4835 58.2263ZM22.5835 65.0876C16.1469 65.0876 11.189 63.6716 7.55255 61.0049L5.61444 63.6478C9.97795 66.8477 15.6867 68.365 22.5835 68.365V65.0876ZM7.55255 61.0049C3.97075 58.3782 2.22217 54.9343 2.22217 50.5263H-1.05518C-1.05518 55.985 1.19624 60.4077 5.61444 63.6478L7.55255 61.0049ZM2.22217 50.5263C2.22217 46.3613 3.4967 42.8456 6.02767 39.8928L3.53932 37.7599C0.470289 41.3404 -1.05518 45.6246 -1.05518 50.5263H2.22217ZM6.02767 39.8928C8.65955 36.8222 12.3102 34.042 17.0401 31.5798L15.5269 28.6728C10.5234 31.2773 6.50744 34.2971 3.53932 37.7599L6.02767 39.8928ZM17.4422 28.9676C14.8752 26.4006 12.7192 24.0141 10.9668 21.8073L8.40023 23.8454C10.2478 26.1719 12.4918 28.6521 15.1248 31.285L17.4422 28.9676ZM10.9668 21.8073C9.42143 19.8613 8.62217 17.4977 8.62217 14.6263H5.34482C5.34482 18.1549 6.34556 21.258 8.40023 23.8454L10.9668 21.8073ZM8.62217 14.6263C8.62217 11.044 9.82793 8.09931 12.2422 5.68503L9.92478 3.3676C6.87239 6.41998 5.34482 10.2086 5.34482 14.6263H8.62217ZM12.2422 5.68503C14.6553 3.27197 18.1241 1.96499 22.8835 1.96499V-1.31236C17.5095 -1.31236 13.1117 0.180653 9.92478 3.3676L12.2422 5.68503ZM22.8835 1.96499C27.53 1.96499 30.9101 3.18394 33.2541 5.41363L35.5129 3.039C32.3903 0.0686836 28.1037 -1.31236 22.8835 -1.31236V1.96499ZM33.2541 5.41363C35.6129 7.65737 36.8448 10.6688 36.8448 14.6263H40.1222C40.1222 9.91714 38.6208 5.99526 35.5129 3.039L33.2541 5.41363ZM36.8448 14.6263C36.8448 17.9169 35.9681 20.5792 34.2938 22.7154L36.8732 24.7372C39.0655 21.9401 40.1222 18.5357 40.1222 14.6263H36.8448ZM34.2938 22.7154C32.4902 25.0165 29.858 27.4109 26.3405 29.8862L28.2265 32.5664C31.909 29.9751 34.8101 27.3694 36.8732 24.7372L34.2938 22.7154ZM26.1144 32.3746L42.7145 49.2746L45.0525 46.978L28.4525 30.078L26.1144 32.3746ZM45.3725 48.8105C46.6356 46.0613 47.2222 42.6742 47.2222 38.7263H43.9448C43.9448 42.3784 43.398 45.258 42.3945 47.4422L45.3725 48.8105ZM47.2222 38.7263V37.3263H43.9448V38.7263H47.2222ZM45.5835 38.965H52.0835V35.6876H45.5835V38.965ZM50.4448 37.3263V38.7263H53.7222V37.3263H50.4448ZM50.4448 38.7263C50.4448 41.199 50.1597 43.6022 49.5913 45.939L52.7757 46.7136C53.4073 44.1171 53.7222 41.4536 53.7222 38.7263H50.4448ZM49.5913 45.939C49.0252 48.266 48.2196 50.2287 47.1968 51.8532L49.9702 53.5994C51.2141 51.6239 52.1418 49.32 52.7757 46.7136L49.5913 45.939ZM47.4184 53.8786L56.4184 62.9786L58.7486 60.674L49.7486 51.574L47.4184 53.8786ZM56.4873 60.6083L51.4873 65.1083L53.6797 67.5443L58.6797 63.0443L56.4873 60.6083ZM53.7349 65.1603L45.7349 57.2603L43.4321 59.5923L51.4321 67.4923L53.7349 65.1603ZM43.3126 57.3919C41.182 60.0095 38.405 61.9429 34.9324 63.1831L36.0346 66.2695C40.0286 64.8431 43.3184 62.5765 45.8544 59.4608L43.3126 57.3919ZM34.9324 63.1831C31.411 64.4407 27.3036 65.0876 22.5835 65.0876V68.365C27.5967 68.365 32.0894 67.6786 36.0346 66.2695L34.9324 63.1831ZM23.044 28.6209C26.2417 26.6478 28.7465 24.724 30.4876 22.8378L28.0794 20.6148C26.6205 22.1953 24.392 23.9381 21.323 25.8317L23.044 28.6209ZM30.5083 22.815C32.411 20.6744 33.3222 18.003 33.3222 14.9263H30.0448C30.0448 17.3162 29.356 19.1782 28.0587 20.6376L30.5083 22.815ZM33.3222 14.9263C33.3222 12.0818 32.528 9.63773 30.7688 7.79485L28.3982 10.0578C29.439 11.1482 30.0448 12.7041 30.0448 14.9263H33.3222ZM30.82 7.85106C29.0394 5.80325 26.2343 4.98764 22.8835 4.98764V8.26499C25.7994 8.26499 27.461 8.98272 28.3469 10.0016L30.82 7.85106ZM22.8835 4.98764C19.4439 4.98764 16.5752 5.84672 14.6755 7.91902L17.0915 10.1336C18.1252 9.00591 19.9231 8.26499 22.8835 8.26499V4.98764ZM14.6503 7.94724C12.9627 9.87592 12.1448 12.2378 12.1448 14.9263H15.4222C15.4222 12.9482 16.0043 11.3767 17.1167 10.1054L14.6503 7.94724ZM12.1448 14.9263C12.1448 17.471 13.0308 19.7967 14.7131 21.8614L17.2539 19.7912C16.0029 18.2559 15.4222 16.6483 15.4222 14.9263H12.1448ZM14.7361 21.8889C16.3209 23.7494 18.4326 25.9266 21.0557 28.4151L23.3113 26.0375C20.7343 23.5927 18.7128 21.5033 17.2309 19.7637L14.7361 21.8889ZM22.5835 62.465C26.6027 62.465 30.128 61.8769 33.1111 60.64L31.8559 57.6126C29.3723 58.6424 26.2977 59.1876 22.5835 59.1876V62.465ZM33.129 60.6325C36.1668 59.3306 38.7451 57.4066 40.8453 54.8718L38.3217 52.7808C36.5552 54.9127 34.4002 56.522 31.838 57.6201L33.129 60.6325ZM40.7547 52.6802L22.4547 33.9802L20.1123 36.2724L38.4123 54.9724L40.7547 52.6802ZM20.5968 33.6385C16.1567 35.6877 12.7098 37.966 10.3741 40.5206L12.7929 42.732C14.7239 40.62 17.7436 38.5649 21.9702 36.6142L20.5968 33.6385ZM10.3726 40.5223C7.98907 43.1364 6.84482 46.4508 6.84482 50.3263H10.1222C10.1222 47.1351 11.0446 44.6495 12.7944 42.7304L10.3726 40.5223ZM6.84482 50.3263C6.84482 54.2876 8.40878 57.4529 11.5667 59.5845L13.4003 56.8681C11.2249 55.3997 10.1222 53.2984 10.1222 50.3263H6.84482ZM11.5904 59.6003C14.5879 61.5486 18.2874 62.465 22.5835 62.465V59.1876C18.7463 59.1876 15.7124 58.3707 13.3766 56.8524L11.5904 59.6003Z" fill="white"/>
</svg>
