<svg width="13" height="26" viewBox="0 0 13 26" fill="none" xmlns="http://www.w3.org/2000/svg">
<path d="M4.32404 1.69978C4.51975 6.27821 4.90042 10.8465 5.46605 15.4045C5.74433 17.6338 6.06391 19.8574 6.42478 22.0754C6.46042 22.2857 6.38915 22.9559 6.70138 22.5843C6.93724 22.469 6.92367 22.3943 6.66404 22.3604L6.36709 22.2043C5.86651 21.9549 5.37441 21.6953 4.88062 21.4273L1.59885 19.7223C0.623144 19.2133 -0.546008 20.5247 0.365218 21.3204C1.50681 22.3197 2.70571 23.2515 3.95582 24.1112C5.05031 24.8611 6.45193 26.0504 7.85865 25.516C9.05495 25.063 10.0001 23.5548 10.684 22.5453C11.4742 21.3631 12.1154 20.0878 12.593 18.7484C13.0426 17.515 11.0759 16.984 10.6297 18.2072C10.2688 19.1976 9.80468 20.1472 9.245 21.0405C8.96525 21.492 8.66047 21.9276 8.33208 22.3451C8.06228 22.6844 7.68557 23.2918 7.30038 23.5022C6.66744 23.8415 5.02655 22.3926 4.48185 22.0041C3.55477 21.342 2.66164 20.6337 1.80587 19.8817L0.572237 21.4816L4.29011 23.4156C5.20473 23.8924 6.32636 24.7305 7.41746 24.4234C8.64091 24.0841 8.60528 22.866 8.43559 21.8548C8.22687 20.5451 8.01646 19.2353 7.8315 17.9222C7.0679 12.5458 6.58938 7.12875 6.3603 1.69978C6.30431 0.395134 4.26805 0.388348 4.32404 1.69978Z" fill="#FCEF00"/>
</svg>
