<svg width="159" height="88" viewBox="0 0 159 88" fill="none" xmlns="http://www.w3.org/2000/svg">
<path d="M2.71179 13.3065C7.8574 11.4354 15.7194 7.04165 20.9648 5.4227C23.911 4.51337 30.346 5.4227 33.3855 5.4227C37.6342 5.4227 41.4695 6.60354 45.7182 6.60354C62.4815 6.60354 79.2448 6.60354 96.0081 6.60354C102.177 6.60354 108.527 6.1852 114.658 6.91611C118.961 7.42901 123.194 8.80812 127.37 9.90294C130.552 10.7372 133.274 12.6862 136.365 13.7928C138.45 14.5392 140.558 15.1591 142.478 16.2934C146.326 18.5673 149.349 22.6033 151.542 26.4C153.091 29.0812 153.819 31.8744 154.355 34.8916C155.061 38.8535 156.061 42.9222 156.318 46.9431C156.549 50.5722 156.413 54.2903 156.214 57.918C156.052 60.8637 155.927 63.3255 154.008 65.7324C149.972 70.7964 143.403 73.2996 137.806 76.1342C131.949 79.1008 125.029 80.0608 118.618 81.309C110.203 82.9474 101.982 84.7765 93.3859 85.1815C88.3771 85.4175 83.3088 85.5594 78.3128 85.0426C75.2602 84.7268 72.2857 84.4348 69.2134 84.4348C64.3128 84.4348 59.7421 82.719 54.9739 81.83C51.843 81.2463 48.7844 80.9851 45.7529 79.9025C43.5028 79.0989 41.1076 79.0453 38.8068 78.3917C36.5678 77.7556 34.2538 77.6286 31.9996 77.0024C26.0618 75.353 19.76 75.3928 14.7732 71.2372C12.7186 69.525 11.0851 67.3025 9.63308 65.0899C7.99224 62.5895 5.97735 59.085 5.43068 56.1467C5.1814 54.8068 5.30514 53.3895 5.03128 52.0659C4.7982 50.9393 4.14565 50.159 4.14565 48.9575C4.14565 46.4312 3.92932 43.8101 4.18038 41.2994C4.65029 36.6003 5.95654 31.6047 8.27859 27.4766C9.64826 25.0417 10.4781 22.2305 11.6475 19.697C12.6788 17.4625 13.995 15.4612 15.1552 13.3065C15.7888 12.13 17.2049 10.7233 18.1421 9.72929C19.4674 8.32361 22.2405 8.04141 23.9768 7.36761C26.5483 6.36971 28.9764 5.82554 31.7217 5.4227C35.399 4.8831 39.0331 4.18966 42.5924 3.47778" stroke="#FCEF00" stroke-width="5" stroke-linecap="round"/>
</svg>
