<svg width="284" height="85" viewBox="0 0 284 85" fill="none" xmlns="http://www.w3.org/2000/svg">
<path d="M0.645996 66.7263H-0.992678V68.365H0.645996V66.7263ZM0.645996 2.32631V0.687637H-0.992678V2.32631H0.645996ZM46.346 9.92632L45.1007 10.9914L46.346 9.92632ZM46.446 59.1263L45.1858 58.0789L45.1844 58.0805L46.446 59.1263ZM8.846 60.3263H7.20732V61.965H8.846V60.3263ZM35.646 58.3263L36.3115 59.8238L36.3253 59.8176L36.339 59.8113L35.646 58.3263ZM42.346 50.7263L40.8342 50.0941L40.8293 50.1059L40.8245 50.1177L42.346 50.7263ZM42.546 19.0263L40.9997 19.5689L41.004 19.5809L41.0084 19.5928L42.546 19.0263ZM36.046 11.1263L35.2869 12.5785L35.3064 12.5888L35.3263 12.5985L36.046 11.1263ZM8.846 8.82631V7.18764H7.20732V8.82631H8.846ZM2.28467 66.7263V2.32631H-0.992678V66.7263H2.28467ZM0.645996 3.96499H25.846V0.687637H0.645996V3.96499ZM25.846 3.96499C34.8997 3.96499 41.1884 6.41701 45.1007 10.9914L47.5913 8.86123C42.837 3.30228 35.4589 0.687637 25.846 0.687637V3.96499ZM45.1007 10.9914C49.0502 15.6093 51.2073 23.4546 51.2073 34.9263H54.4847C54.4847 23.198 52.3085 14.3767 47.5913 8.86123L45.1007 10.9914ZM51.2073 34.9263C51.2073 45.7733 49.0931 53.3779 45.1858 58.0789L47.7062 60.1738C52.3323 54.608 54.4847 46.0794 54.4847 34.9263H51.2073ZM45.1844 58.0805C41.4158 62.6268 35.1175 65.0876 25.846 65.0876V68.365C35.6411 68.365 43.0762 65.7592 47.7076 60.1721L45.1844 58.0805ZM25.846 65.0876H0.645996V68.365H25.846V65.0876ZM8.846 61.965H24.346V58.6876H8.846V61.965ZM24.346 61.965C29.0268 61.965 33.0383 61.2785 36.3115 59.8238L34.9805 56.8289C32.2537 58.0408 28.7319 58.6876 24.346 58.6876V61.965ZM36.339 59.8113C39.7873 58.202 42.2778 55.3092 43.8675 51.3349L40.8245 50.1177C39.4809 53.4768 37.5047 55.6506 34.953 56.8414L36.339 59.8113ZM43.8578 51.3585C45.5147 47.3963 46.2847 41.875 46.2847 34.9263H43.0073C43.0073 41.7109 42.2439 46.723 40.8342 50.0941L43.8578 51.3585ZM46.2847 34.9263C46.2847 28.0459 45.5807 22.5234 44.0836 18.4598L41.0084 19.5928C42.3113 23.1293 43.0073 28.2067 43.0073 34.9263H46.2847ZM44.0923 18.4838C42.6476 14.3666 40.2301 11.3479 36.7657 9.65415L35.3263 12.5985C37.8619 13.8381 39.7777 16.086 40.9997 19.5689L44.0923 18.4838ZM36.8051 9.67408C33.5532 7.97422 29.362 7.18764 24.346 7.18764V10.465C29.0634 10.465 32.6721 11.2117 35.2869 12.5785L36.8051 9.67408ZM24.346 7.18764H8.846V10.465H24.346V7.18764ZM7.20732 8.82631V60.3263H10.4847V8.82631H7.20732ZM69.1062 61.6263L67.9663 62.8036L69.1062 61.6263ZM68.2062 24.9263L66.9473 23.8773L66.9457 23.8792L68.2062 24.9263ZM97.0062 20.9263L96.1864 22.3452L96.2049 22.3559L96.2237 22.3661L97.0062 20.9263ZM103.806 27.9263L102.334 28.646L102.344 28.6659L102.354 28.6854L103.806 27.9263ZM106.106 46.8263V48.465H107.745V46.8263H106.106ZM71.0061 46.8263V45.1876H69.2416L69.372 46.9474L71.0061 46.8263ZM73.3062 55.3263L71.909 56.1826L71.9189 56.1988L71.9292 56.2147L73.3062 55.3263ZM79.2062 59.8263L78.6525 61.3686L78.676 61.3771L78.6997 61.3848L79.2062 59.8263ZM103.106 58.6263H104.745V56.1838L102.485 57.11L103.106 58.6263ZM103.106 65.0263L103.74 66.5375L104.745 66.1161V65.0263H103.106ZM96.1062 67.0263L95.8167 65.4134L95.8093 65.4148L96.1062 67.0263ZM71.0061 40.9263H69.3675V42.565H71.0061V40.9263ZM98.8062 40.9263V42.565H100.445V40.9263H98.8062ZM95.7062 28.1263L94.5107 29.2471L94.5288 29.2663L94.5474 29.285L95.7062 28.1263ZM88.1062 66.0876C79.8748 66.0876 74.0267 64.1097 70.246 60.4491L67.9663 62.8036C72.5856 67.2763 79.4042 69.365 88.1062 69.365V66.0876ZM70.246 60.4491C66.4846 56.8071 64.4448 51.0495 64.4448 42.8263H61.1675C61.1675 51.5365 63.3277 58.3122 67.9663 62.8036L70.246 60.4491ZM64.4448 42.8263C64.4448 35.4751 66.1847 29.9239 69.4666 25.9735L66.9457 23.8792C63.0276 28.5954 61.1675 34.9776 61.1675 42.8263H64.4448ZM69.465 25.9754C72.7157 22.0745 77.9345 19.965 85.5062 19.965V16.6876C77.3444 16.6876 71.0299 18.9781 66.9473 23.8773L69.465 25.9754ZM85.5062 19.965C89.9812 19.965 93.5074 20.7973 96.1864 22.3452L97.8259 19.5074C94.5049 17.5886 90.3644 16.6876 85.5062 16.6876V19.965ZM96.2237 22.3661C99.0056 23.878 101.024 25.9663 102.334 28.646L105.278 27.2066C103.655 23.8864 101.14 21.3079 97.7886 19.4865L96.2237 22.3661ZM102.354 28.6854C103.75 31.3559 104.467 34.4231 104.467 37.9263H107.745C107.745 33.9628 106.929 30.3634 105.258 27.1672L102.354 28.6854ZM104.467 37.9263V46.8263H107.745V37.9263H104.467ZM106.106 45.1876H71.0061V48.465H106.106V45.1876ZM69.372 46.9474C69.6492 50.6906 70.4554 53.811 71.909 56.1826L74.7033 54.47C73.6236 52.7083 72.8964 50.162 72.6404 46.7053L69.372 46.9474ZM71.9292 56.2147C73.4815 58.6208 75.7576 60.3294 78.6525 61.3686L79.7598 58.284C77.4547 57.4565 75.7974 56.1651 74.6831 54.438L71.9292 56.2147ZM78.6997 61.3848C81.5936 62.3253 85.2839 62.765 89.7062 62.765V59.4876C85.4617 59.4876 82.152 59.0607 79.7126 58.2679L78.6997 61.3848ZM89.7062 62.765C94.763 62.765 99.4436 61.8983 103.728 60.1426L102.485 57.11C98.6354 58.6876 94.3826 59.4876 89.7062 59.4876V62.765ZM101.467 58.6263V65.0263H104.745V58.6263H101.467ZM102.472 63.5151C100.534 64.328 98.3189 64.9643 95.8167 65.4134L96.3956 68.6392C99.0934 68.155 101.545 67.4579 103.74 66.5375L102.472 63.5151ZM95.8093 65.4148C93.3819 65.8619 90.8151 66.0876 88.1062 66.0876V69.365C90.9972 69.365 93.7637 69.1241 96.403 68.6379L95.8093 65.4148ZM71.0061 42.565H98.8062V39.2876H71.0061V42.565ZM100.445 40.9263V37.0263H97.1675V40.9263H100.445ZM100.445 37.0263C100.445 32.8705 99.3283 29.431 96.8649 26.9676L94.5474 29.285C96.2173 30.9549 97.1675 33.4488 97.1675 37.0263H100.445ZM96.9016 27.0056C94.4491 24.3896 90.5632 23.2876 85.7062 23.2876V26.565C90.1825 26.565 92.9632 27.5964 94.5107 29.2471L96.9016 27.0056ZM85.7062 23.2876C79.8709 23.2876 75.3486 24.6481 72.8109 27.9225L75.4014 29.9301C76.997 27.8712 80.2081 26.565 85.7062 26.565V23.2876ZM72.8109 27.9225C70.4252 31.0008 69.3675 35.4268 69.3675 40.9263H72.6448C72.6448 35.7592 73.6537 32.1851 75.4014 29.9301L72.8109 27.9225ZM123.738 67.1263L123.501 68.7477L123.506 68.7485L123.738 67.1263ZM116.838 65.5263H115.2V66.6811L116.287 67.0695L116.838 65.5263ZM116.838 58.3263L117.384 56.7811L115.2 56.0102V58.3263H116.838ZM123.938 60.1263L123.676 61.7439L123.683 61.7449L123.938 60.1263ZM140.438 59.4263L141.149 60.9028L141.171 60.8922L141.192 60.8811L140.438 59.4263ZM141.638 50.2263L140.479 51.385L140.499 51.405L140.52 51.4243L141.638 50.2263ZM137.238 47.7263L136.657 49.2585L136.666 49.2617L136.674 49.2648L137.238 47.7263ZM129.738 45.1263L129.209 46.6771L129.219 46.6807L129.23 46.6843L129.738 45.1263ZM122.438 42.2263L121.743 43.7101L122.438 42.2263ZM117.438 38.2263L116.091 39.1591L116.099 39.1715L116.108 39.1838L117.438 38.2263ZM120.038 21.7263L121.021 23.0373L121.031 23.0302L121.04 23.023L120.038 21.7263ZM141.538 18.9263L141.261 20.5414L141.284 20.5453L141.306 20.5485L141.538 18.9263ZM147.638 20.2263H149.277V19.016L148.12 18.6601L147.638 20.2263ZM147.638 27.4263L147.12 28.9809L149.277 29.6999V27.4263H147.638ZM126.538 26.6263L127.204 28.1238L127.216 28.1183L127.228 28.1126L126.538 26.6263ZM125.038 34.9263L123.794 35.9928L123.835 36.0405L123.879 36.085L125.038 34.9263ZM128.938 37.2263L128.35 38.7558L128.385 38.7691L128.42 38.7809L128.938 37.2263ZM135.838 39.5263L135.32 41.0809L135.337 41.0866L135.354 41.0919L135.838 39.5263ZM144.738 43.0263L143.971 44.4746L144.738 43.0263ZM149.738 47.4263L151.134 46.5675V46.5675L149.738 47.4263ZM146.438 64.5263L147.334 65.8983L147.344 65.892L147.354 65.8855L146.438 64.5263ZM132.538 66.0876C129.543 66.0876 126.687 65.8923 123.97 65.5041L123.506 68.7485C126.389 69.1604 129.4 69.365 132.538 69.365V66.0876ZM123.975 65.5049C121.311 65.115 119.123 64.6024 117.389 63.9831L116.287 67.0695C118.286 67.7836 120.699 68.3377 123.501 68.7477L123.975 65.5049ZM118.477 65.5263V58.3263H115.2V65.5263H118.477ZM116.293 59.8716C118.655 60.7053 121.117 61.3289 123.676 61.7439L124.2 58.5088C121.826 58.1238 119.555 57.5473 117.384 56.7811L116.293 59.8716ZM123.683 61.7449C126.297 62.1578 128.883 62.365 131.438 62.365V59.0876C129.06 59.0876 126.646 58.8949 124.194 58.5077L123.683 61.7449ZM131.438 62.365C135.671 62.365 138.993 61.9408 141.149 60.9028L139.727 57.9499C138.283 58.6451 135.605 59.0876 131.438 59.0876V62.365ZM141.192 60.8811C143.664 59.5996 144.777 57.246 144.777 54.3263H141.5C141.5 56.34 140.813 57.3863 139.684 57.9716L141.192 60.8811ZM144.777 54.3263C144.777 52.2227 144.184 50.3612 142.756 49.0284L140.52 51.4243C141.092 51.9581 141.5 52.83 141.5 54.3263H144.777ZM142.797 49.0676C141.623 47.8938 139.904 46.9586 137.802 46.1878L136.674 49.2648C138.572 49.9607 139.787 50.6922 140.479 51.385L142.797 49.0676ZM137.819 46.1942C135.852 45.4481 133.326 44.5725 130.246 43.5684L129.23 46.6843C132.284 47.6801 134.757 48.5379 136.657 49.2585L137.819 46.1942ZM130.268 43.5756C127.579 42.6574 125.203 41.7123 123.134 40.7426L121.743 43.7101C123.941 44.7403 126.431 45.7286 129.209 46.6771L130.268 43.5756ZM123.134 40.7426C121.216 39.8434 119.782 38.6774 118.768 37.2688L116.108 39.1838C117.494 41.1086 119.394 42.6092 121.743 43.7101L123.134 40.7426ZM118.785 37.2936C117.832 35.917 117.277 33.9769 117.277 31.3263H114C114 34.4091 114.644 37.069 116.091 39.1591L118.785 37.2936ZM117.277 31.3263C117.277 27.5565 118.565 24.8798 121.021 23.0373L119.055 20.4154C115.645 22.9728 114 26.6961 114 31.3263H117.277ZM121.04 23.023C123.539 21.0922 127.821 19.965 134.238 19.965V16.6876C127.589 16.6876 122.404 17.8271 119.036 20.4297L121.04 23.023ZM134.238 19.965C136.685 19.965 139.026 20.1582 141.261 20.5414L141.815 17.3112C139.384 16.8945 136.858 16.6876 134.238 16.6876V19.965ZM141.306 20.5485C143.579 20.8731 145.525 21.2905 147.156 21.7925L148.12 18.6601C146.285 18.0954 144.164 17.6462 141.77 17.3041L141.306 20.5485ZM146 20.2263V27.4263H149.277V20.2263H146ZM148.156 25.8717C143.813 24.424 139.604 23.6876 135.538 23.6876V26.965C139.205 26.965 143.063 27.6287 147.12 28.9809L148.156 25.8717ZM135.538 23.6876C131.359 23.6876 128.056 24.1151 125.848 25.14L127.228 28.1126C128.754 27.4042 131.45 26.965 135.538 26.965V23.6876ZM125.873 25.1289C124.695 25.6522 123.742 26.4531 123.1 27.5468C122.467 28.6252 122.2 29.8802 122.2 31.2263H125.477C125.477 30.3058 125.659 29.6607 125.926 29.2058C126.184 28.7662 126.581 28.4004 127.204 28.1238L125.873 25.1289ZM122.2 31.2263C122.2 33.0508 122.681 34.6944 123.794 35.9928L126.282 33.8599C125.795 33.2915 125.477 32.4685 125.477 31.2263H122.2ZM123.879 36.085C124.97 37.1754 126.502 38.0452 128.35 38.7558L129.526 35.6969C127.907 35.0741 126.84 34.4106 126.197 33.7676L123.879 36.085ZM128.42 38.7809C130.22 39.3809 132.52 40.1476 135.32 41.0809L136.356 37.9717C133.556 37.0384 131.256 36.2717 129.456 35.6717L128.42 38.7809ZM135.354 41.0919C138.966 42.2083 141.828 43.3397 143.971 44.4746L145.505 41.5781C143.115 40.313 140.043 39.111 136.322 37.9607L135.354 41.0919ZM143.971 44.4746C146.046 45.5729 147.464 46.8579 148.343 48.2851L151.134 46.5675C149.879 44.5281 147.964 42.8798 145.505 41.5781L143.971 44.4746ZM148.343 48.2851C149.201 49.6806 149.7 51.62 149.7 54.2263H152.977C152.977 51.2326 152.408 48.6387 151.134 46.5675L148.343 48.2851ZM149.7 54.2263C149.7 58.4639 148.249 61.3312 145.523 63.1671L147.354 65.8855C151.161 63.3214 152.977 59.3221 152.977 54.2263H149.7ZM145.542 63.1543C142.649 65.0435 138.379 66.0876 132.538 66.0876V69.365C138.698 69.365 143.694 68.2758 147.334 65.8983L145.542 63.1543ZM164.814 8.22631H163.175V9.86499H164.814V8.22631ZM164.814 0.726315V-0.912357H163.175V0.726315H164.814ZM173.914 0.726315H175.553V-0.912357H173.914V0.726315ZM173.914 8.22631V9.86499H175.553V8.22631H173.914ZM165.614 66.7263H163.975V68.365H165.614V66.7263ZM165.614 25.8263H167.253V24.1876H165.614V25.8263ZM158.314 25.8263L156.688 25.6261L156.461 27.465H158.314V25.8263ZM159.114 19.3263V17.6876H157.665L157.488 19.1261L159.114 19.3263ZM173.814 19.3263H175.453V17.6876H173.814V19.3263ZM173.814 66.7263V68.365H175.453V66.7263H173.814ZM166.453 8.22631V0.726315H163.175V8.22631H166.453ZM164.814 2.36499H173.914V-0.912357H164.814V2.36499ZM172.275 0.726315V8.22631H175.553V0.726315H172.275ZM173.914 6.58764H164.814V9.86499H173.914V6.58764ZM167.253 66.7263V25.8263H163.975V66.7263H167.253ZM165.614 24.1876H158.314V27.465H165.614V24.1876ZM159.94 26.0265L160.74 19.5265L157.488 19.1261L156.688 25.6261L159.94 26.0265ZM159.114 20.965H173.814V17.6876H159.114V20.965ZM172.175 19.3263V66.7263H175.453V19.3263H172.175ZM173.814 65.0876H165.614V68.365H173.814V65.0876ZM195.951 83.7263L195.755 85.3533L195.759 85.3538L195.951 83.7263ZM187.351 81.8263H185.712V82.9768L186.794 83.3676L187.351 81.8263ZM187.351 75.0263L187.857 73.4679L185.712 72.7707V75.0263H187.351ZM196.351 77.0263L196.123 78.6492L196.351 77.0263ZM216.951 76.8263L216.543 75.2393L216.951 76.8263ZM218.551 68.5263L217.696 69.9246L217.713 69.9347L217.73 69.9445L218.551 68.5263ZM188.151 53.1263L186.811 52.1832L186.803 52.1936L188.151 53.1263ZM193.751 49.3263L194.218 50.897L198.193 49.7153L194.484 47.8606L193.751 49.3263ZM187.851 43.8263L186.401 44.5912L186.406 44.5997L186.411 44.6081L187.851 43.8263ZM191.051 22.4263L192.062 23.7157L192.065 23.7131L191.051 22.4263ZM211.351 18.7263L211.07 20.3408L211.109 20.3475L211.147 20.3523L211.351 18.7263ZM215.051 19.3263L214.682 20.923L214.864 20.965H215.051V19.3263ZM232.151 19.3263L233.787 19.414L233.88 17.6876H232.151V19.3263ZM231.851 24.9263V26.565H233.404L233.487 25.014L231.851 24.9263ZM223.251 24.9263V23.2876H218.694L222.207 26.1897L223.251 24.9263ZM226.551 29.5263L225.014 30.0955L225.018 30.105L225.021 30.1146L226.551 29.5263ZM222.951 47.6263L224.07 48.8234L224.077 48.817L224.083 48.8105L222.951 47.6263ZM205.951 51.8263L205.681 53.4427L205.753 53.4546L205.825 53.4602L205.951 51.8263ZM203.051 51.4263L203.242 49.7989L203.12 49.7845L202.998 49.7885L203.051 51.4263ZM197.251 53.2263L198.086 54.6361L198.105 54.6248L198.124 54.613L197.251 53.2263ZM195.851 59.9263L194.992 61.3219L195.015 61.3359L195.038 61.3491L195.851 59.9263ZM224.851 63.6263L223.857 64.929L223.868 64.9374L223.879 64.9455L224.851 63.6263ZM222.851 81.6263L222.159 80.1407L222.851 81.6263ZM216.651 43.4263L217.713 44.6737L216.651 43.4263ZM216.451 26.9263L215.336 28.1271L215.346 28.1369L215.357 28.1464L216.451 26.9263ZM197.151 26.8263L196.102 25.5675L197.151 26.8263ZM196.951 43.3263L195.859 44.5487L195.882 44.5691L195.906 44.5887L196.951 43.3263ZM206.351 82.6876C202.879 82.6876 199.477 82.4912 196.142 82.0989L195.759 85.3538C199.225 85.7615 202.755 85.965 206.351 85.965V82.6876ZM196.146 82.0993C192.9 81.7098 190.16 81.0987 187.907 80.2851L186.794 83.3676C189.341 84.2872 192.335 84.9429 195.755 85.3533L196.146 82.0993ZM188.989 81.8263V75.0263H185.712V81.8263H188.989ZM186.844 76.5848C189.618 77.4862 192.714 78.1718 196.123 78.6492L196.578 75.4035C193.321 74.9475 190.417 74.2998 187.857 73.4679L186.844 76.5848ZM196.123 78.6492C199.525 79.1254 202.801 79.365 205.951 79.365V76.0876C202.967 76.0876 199.843 75.8606 196.578 75.4035L196.123 78.6492ZM205.951 79.365C210.974 79.365 214.814 79.0676 217.359 78.4134L216.543 75.2393C214.42 75.785 210.927 76.0876 205.951 76.0876V79.365ZM217.359 78.4134C218.791 78.045 220.022 77.3458 220.88 76.2186C221.734 75.0953 222.089 73.7168 222.089 72.2263H218.812C218.812 73.2025 218.584 73.824 218.272 74.2341C217.963 74.6402 217.444 75.0076 216.543 75.2393L217.359 78.4134ZM222.089 72.2263C222.089 70.0359 221.246 68.1933 219.372 67.1082L217.73 69.9445C218.389 70.326 218.812 70.95 218.812 72.2263H222.089ZM219.405 67.1281C217.781 66.1354 215.198 65.7876 212.051 65.7876V69.065C215.17 69.065 216.921 69.4505 217.696 69.9246L219.405 67.1281ZM212.051 65.7876H199.451V69.065H212.051V65.7876ZM199.451 65.7876C195.216 65.7876 192.327 65.0671 190.539 63.8661C188.867 62.7428 187.989 61.0876 187.989 58.6263H184.712C184.712 62.0317 186.017 64.7766 188.712 66.5866C191.291 68.3189 194.952 69.065 199.451 69.065V65.7876ZM187.989 58.6263C187.989 57.0566 188.47 55.5443 189.498 54.0591L186.803 52.1936C185.432 54.175 184.712 56.3294 184.712 58.6263H187.989ZM189.491 54.0694C190.511 52.6201 192.042 51.5439 194.218 50.897L193.284 47.7556C190.526 48.5754 188.324 50.0326 186.811 52.1833L189.491 54.0694ZM194.484 47.8606C192.079 46.6582 190.378 45.0472 189.291 43.0445L186.411 44.6081C187.857 47.2721 190.089 49.3277 193.018 50.792L194.484 47.8606ZM189.3 43.0615C188.181 40.9407 187.589 38.3803 187.589 35.3263H184.312C184.312 38.8056 184.987 41.912 186.401 44.5912L189.3 43.0615ZM187.589 35.3263C187.589 29.6964 189.192 25.9663 192.062 23.7157L190.039 21.1369C186.109 24.2196 184.312 29.0895 184.312 35.3263H187.589ZM192.065 23.7131C195.115 21.3089 199.946 19.965 206.851 19.965V16.6876C199.622 16.6876 193.92 18.0771 190.036 21.1395L192.065 23.7131ZM206.851 19.965C208.218 19.965 209.624 20.0892 211.07 20.3408L211.631 17.1119C210.011 16.8301 208.417 16.6876 206.851 16.6876V19.965ZM211.147 20.3523C212.729 20.55 213.897 20.7418 214.682 20.923L215.419 17.7296C214.471 17.5108 213.173 17.3026 211.554 17.1003L211.147 20.3523ZM215.051 20.965H232.151V17.6876H215.051V20.965ZM230.514 19.2387L230.214 24.8387L233.487 25.014L233.787 19.414L230.514 19.2387ZM231.851 23.2876H223.251V26.565H231.851V23.2876ZM222.207 26.1897C223.526 27.2794 224.451 28.5763 225.014 30.0955L228.087 28.9572C227.317 26.8763 226.042 25.1066 224.294 23.663L222.207 26.1897ZM225.021 30.1146C225.606 31.6344 225.912 33.3646 225.912 35.3263H229.189C229.189 33.0214 228.829 30.8848 228.08 28.9381L225.021 30.1146ZM225.912 35.3263C225.912 40.2607 224.487 43.8893 221.818 46.4421L224.083 48.8105C227.548 45.4967 229.189 40.9253 229.189 35.3263H225.912ZM221.832 46.4292C219.192 48.8972 214.975 50.2876 208.851 50.2876V53.565C215.393 53.565 220.576 52.0888 224.07 48.8234L221.832 46.4292ZM208.851 50.2876C207.817 50.2876 206.893 50.2553 206.076 50.1925L205.825 53.4602C206.742 53.5307 207.751 53.565 208.851 53.565V50.2876ZM206.22 50.2099C205.386 50.071 204.392 49.9341 203.242 49.7989L202.859 53.0538C203.976 53.1852 204.915 53.315 205.681 53.4427L206.22 50.2099ZM202.998 49.7885C200.632 49.8648 198.416 50.5559 196.378 51.8396L198.124 54.613C199.685 53.6301 201.336 53.1211 203.104 53.0641L202.998 49.7885ZM196.415 51.8166C194.238 53.1067 192.912 54.9862 192.912 57.4263H196.189C196.189 56.3997 196.663 55.4793 198.086 54.6361L196.415 51.8166ZM192.912 57.4263C192.912 59.0515 193.578 60.452 194.992 61.3219L196.71 58.5307C196.39 58.334 196.189 58.0678 196.189 57.4263H192.912ZM195.038 61.3491C196.379 62.1154 198.437 62.365 200.851 62.365V59.0876C198.465 59.0876 197.189 58.8039 196.664 58.5035L195.038 61.3491ZM200.851 62.365H213.951V59.0876H200.851V62.365ZM213.951 62.365C218.491 62.365 221.718 63.2968 223.857 64.929L225.845 62.3237C222.917 60.0892 218.877 59.0876 213.951 59.0876V62.365ZM223.879 64.9455C225.92 66.4495 227.012 68.6824 227.012 71.9263H230.289C230.289 67.8369 228.848 64.5364 225.823 62.3071L223.879 64.9455ZM227.012 71.9263C227.012 74.0338 226.577 75.7021 225.794 77.0104C225.018 78.3092 223.836 79.3603 222.159 80.1407L223.542 83.1119C225.732 82.0924 227.45 80.6267 228.607 78.6923C229.758 76.7672 230.289 74.4855 230.289 71.9263H227.012ZM222.159 80.1407C218.608 81.794 213.385 82.6876 206.351 82.6876V85.965C213.583 85.965 219.36 85.0587 223.542 83.1119L222.159 80.1407ZM206.851 47.365C211.642 47.365 215.437 46.6131 217.713 44.6737L215.588 42.1789C214.265 43.3062 211.526 44.0876 206.851 44.0876V47.365ZM217.713 44.6737C220.057 42.6772 220.989 39.3748 220.989 35.3263H217.712C217.712 39.0111 216.844 41.1088 215.588 42.1789L217.713 44.6737ZM220.989 35.3263C220.989 31.2237 219.965 27.8763 217.545 25.7062L215.357 28.1464C216.803 29.443 217.712 31.6956 217.712 35.3263H220.989ZM217.566 25.7255C215.234 23.5603 211.505 22.6876 206.851 22.6876V25.965C211.263 25.965 213.934 26.8257 215.336 28.1271L217.566 25.7255ZM206.851 22.6876C202.25 22.6876 198.543 23.5327 196.102 25.5675L198.2 28.0852C199.758 26.7866 202.518 25.965 206.851 25.965V22.6876ZM196.102 25.5675C193.565 27.6817 192.512 31.1029 192.512 35.3263H195.789C195.789 31.5497 196.737 29.3043 198.2 28.0852L196.102 25.5675ZM192.512 35.3263C192.512 39.2392 193.508 42.4495 195.859 44.5487L198.042 42.104C196.66 40.8698 195.789 38.7467 195.789 35.3263H192.512ZM195.906 44.5887C198.297 46.5674 202.09 47.365 206.851 47.365V44.0876C202.278 44.0876 199.471 43.2852 197.995 42.0639L195.906 44.5887ZM240.099 66.7263H238.46V68.365H240.099V66.7263ZM240.099 19.3263V17.6876H238.46V19.3263H240.099ZM247.499 19.3263L249.131 19.1752L248.993 17.6876H247.499V19.3263ZM247.999 24.7263L246.367 24.8774L246.653 27.958L249.041 25.9913L247.999 24.7263ZM255.899 20.1263L255.302 18.6003L255.291 18.6048L255.899 20.1263ZM279.499 22.5263L280.672 21.3816V21.3816L279.499 22.5263ZM283.599 66.7263V68.365H285.238V66.7263H283.599ZM275.399 66.7263H273.76V68.365H275.399V66.7263ZM272.899 27.4263L271.74 28.585L271.752 28.5969L271.764 28.6084L272.899 27.4263ZM248.299 30.9263L247.14 29.7676L246.66 30.2476V30.9263H248.299ZM248.299 66.7263V68.365H249.938V66.7263H248.299ZM241.738 66.7263V19.3263H238.46V66.7263H241.738ZM240.099 20.965H247.499V17.6876H240.099V20.965ZM245.867 19.4774L246.367 24.8774L249.631 24.5752L249.131 19.1752L245.867 19.4774ZM249.041 25.9913C251.165 24.2421 253.649 22.7913 256.508 21.6478L255.291 18.6048C252.149 19.8613 249.367 21.4772 246.957 23.4614L249.041 25.9913ZM256.496 21.6523C259.34 20.5397 262.631 19.965 266.399 19.965V16.6876C262.3 16.6876 258.592 17.3129 255.302 18.6003L256.496 21.6523ZM266.399 19.965C272.189 19.965 276.033 21.321 278.327 23.671L280.672 21.3816C277.499 18.1316 272.609 16.6876 266.399 16.6876V19.965ZM278.327 23.671C280.635 26.0359 281.96 29.9314 281.96 35.7263H285.238C285.238 29.5212 283.83 24.6168 280.672 21.3816L278.327 23.671ZM281.96 35.7263V66.7263H285.238V35.7263H281.96ZM283.599 65.0876H275.399V68.365H283.599V65.0876ZM277.038 66.7263V36.0263H273.76V66.7263H277.038ZM277.038 36.0263C277.038 31.7712 276.199 28.3224 274.034 26.2442L271.764 28.6084C272.933 29.7303 273.76 32.0148 273.76 36.0263H277.038ZM274.058 26.2676C271.892 24.102 268.088 23.2876 263.299 23.2876V26.565C267.977 26.565 270.573 27.4173 271.74 28.585L274.058 26.2676ZM263.299 23.2876C260.162 23.2876 257.183 23.8591 254.377 25.0103L255.621 28.0424C258.015 27.0602 260.57 26.565 263.299 26.565V23.2876ZM254.377 25.0103C251.589 26.1539 249.17 27.7377 247.14 29.7676L249.458 32.085C251.161 30.3816 253.209 29.032 255.621 28.0424L254.377 25.0103ZM246.66 30.9263V66.7263H249.938V30.9263H246.66ZM248.299 65.0876H240.099V68.365H248.299V65.0876Z" fill="white"/>
</svg>
