<svg width="187" height="145" viewBox="0 0 187 145" fill="none" xmlns="http://www.w3.org/2000/svg">
<path d="M177.777 144.937L186.437 136.277L177.777 127.616L169.117 136.277L177.777 144.937ZM177.777 102.817H179.277V101.317H177.777V102.817ZM2.11511 102.817H0.615112V104.317H2.11511V102.817ZM2.11511 11.9988V10.4988H0.615112V11.9988H2.11511ZM101.164 13.0595C101.75 12.4737 101.75 11.524 101.164 10.9382L91.6181 1.39224C91.0323 0.806452 90.0825 0.806452 89.4967 1.39224C88.9109 1.97803 88.9109 2.92777 89.4967 3.51356L97.982 11.9988L89.4967 20.4841C88.9109 21.0699 88.9109 22.0197 89.4967 22.6054C90.0825 23.1912 91.0323 23.1912 91.6181 22.6054L101.164 13.0595ZM100.103 10.4988H97.0412V13.4988H100.103V10.4988ZM90.9169 10.4988H84.7927V13.4988H90.9169V10.4988ZM78.6684 10.4988H72.5442V13.4988H78.6684V10.4988ZM66.4199 10.4988H60.2956V13.4988H66.4199V10.4988ZM54.1714 10.4988H48.0471V13.4988H54.1714V10.4988ZM41.9228 10.4988H35.7986V13.4988H41.9228V10.4988ZM29.6743 10.4988H23.55V13.4988H29.6743V10.4988ZM17.4258 10.4988H11.3015V13.4988H17.4258V10.4988ZM5.17723 10.4988H2.11511V13.4988H5.17723V10.4988ZM0.615112 11.9988V14.8369H3.61511V11.9988H0.615112ZM0.615112 20.5131V26.1892H3.61511V20.5131H0.615112ZM0.615112 31.8654V37.5415H3.61511V31.8654H0.615112ZM0.615112 43.2176V48.8938H3.61511V43.2176H0.615112ZM0.615112 54.5699V60.2461H3.61511V54.5699H0.615112ZM0.615112 65.9222V71.5984H3.61511V65.9222H0.615112ZM0.615112 77.2745V82.9507H3.61511V77.2745H0.615112ZM0.615112 88.6268V94.303H3.61511V88.6268H0.615112ZM0.615112 99.9791V102.817H3.61511V99.9791H0.615112ZM2.11511 104.317H5.04281V101.317H2.11511V104.317ZM10.8982 104.317H16.7536V101.317H10.8982V104.317ZM22.609 104.317H28.4644V101.317H22.609V104.317ZM34.3198 104.317H40.1752V101.317H34.3198V104.317ZM46.0306 104.317H51.8859V101.317H46.0306V104.317ZM57.7413 104.317H63.5967V101.317H57.7413V104.317ZM69.4521 104.317H75.3075V101.317H69.4521V104.317ZM81.1629 104.317H87.0183V101.317H81.1629V104.317ZM92.8737 104.317H98.7291V101.317H92.8737V104.317ZM104.584 104.317H110.44V101.317H104.584V104.317ZM116.295 104.317H122.151V101.317H116.295V104.317ZM128.006 104.317H133.861V101.317H128.006V104.317ZM139.717 104.317H145.572V101.317H139.717V104.317ZM151.428 104.317H157.283V101.317H151.428V104.317ZM163.138 104.317H168.994V101.317H163.138V104.317ZM174.849 104.317H177.777V101.317H174.849V104.317ZM176.277 102.817V105.605H179.277V102.817H176.277ZM176.277 111.182V116.759H179.277V111.182H176.277ZM176.277 122.335V127.912H179.277V122.335H176.277ZM176.277 133.488V136.277H179.277V133.488H176.277Z" fill="white"/>
</svg>
