<svg width="23" height="90" viewBox="0 0 23 90" fill="none" xmlns="http://www.w3.org/2000/svg">
<path d="M11.5 89.6603L20.1603 81L11.5 72.3397L2.83975 81L11.5 89.6603ZM12.5607 0.93934C11.9749 0.353553 11.0251 0.353553 10.4393 0.93934L0.893398 10.4853C0.307611 11.0711 0.307611 12.0208 0.893398 12.6066C1.47919 13.1924 2.42893 13.1924 3.01472 12.6066L11.5 4.12132L19.9853 12.6066C20.5711 13.1924 21.5208 13.1924 22.1066 12.6066C22.6924 12.0208 22.6924 11.0711 22.1066 10.4853L12.5607 0.93934ZM10 2V4.78125H13V2H10ZM10 10.3438V15.9062H13V10.3438H10ZM10 21.4688V27.0312H13V21.4688H10ZM10 32.5938V38.1562H13V32.5938H10ZM10 43.7188V46.5H13V43.7188H10ZM10 46.5V47.75H13V46.5H10ZM10 50.25V51.5H13V50.25H10ZM10 51.5V55.1875H13V51.5H10ZM10 62.5625V69.9375H13V62.5625H10ZM10 77.3125V81H13V77.3125H10Z" fill="white"/>
</svg>
