<svg width="18" height="21" viewBox="0 0 18 21" fill="none" xmlns="http://www.w3.org/2000/svg">
<path d="M13.1249 5.65137V4.52637C13.1249 4.42324 13.0406 4.33887 12.9374 4.33887H3.93744C3.83431 4.33887 3.74994 4.42324 3.74994 4.52637V5.65137C3.74994 5.75449 3.83431 5.83887 3.93744 5.83887H12.9374C13.0406 5.83887 13.1249 5.75449 13.1249 5.65137ZM3.93744 7.71387C3.83431 7.71387 3.74994 7.79824 3.74994 7.90137V9.02637C3.74994 9.12949 3.83431 9.21387 3.93744 9.21387H8.24994C8.35306 9.21387 8.43744 9.12949 8.43744 9.02637V7.90137C8.43744 7.79824 8.35306 7.71387 8.24994 7.71387H3.93744ZM7.31244 18.3076H1.87494V1.80762H14.9999V9.87012C14.9999 9.97324 15.0843 10.0576 15.1874 10.0576H16.4999C16.6031 10.0576 16.6874 9.97324 16.6874 9.87012V0.870117C16.6874 0.455273 16.3523 0.120117 15.9374 0.120117H0.937439C0.522595 0.120117 0.187439 0.455273 0.187439 0.870117V19.2451C0.187439 19.66 0.522595 19.9951 0.937439 19.9951H7.31244C7.41556 19.9951 7.49994 19.9107 7.49994 19.8076V18.4951C7.49994 18.392 7.41556 18.3076 7.31244 18.3076ZM17.7585 19.5146L15.5718 17.3279C16.0945 16.6365 16.4062 15.774 16.4062 14.8389C16.4062 12.5607 14.5593 10.7139 12.2812 10.7139C10.0031 10.7139 8.15619 12.5607 8.15619 14.8389C8.15619 17.117 10.0031 18.9639 12.2812 18.9639C13.1202 18.9639 13.8984 18.7131 14.5499 18.2842L16.7695 20.5037C16.807 20.5412 16.8538 20.5576 16.9007 20.5576C16.9476 20.5576 16.9968 20.5389 17.032 20.5037L17.7585 19.7771C17.7758 19.7599 17.7895 19.7395 17.7989 19.717C17.8083 19.6944 17.8131 19.6703 17.8131 19.6459C17.8131 19.6215 17.8083 19.5974 17.7989 19.5748C17.7895 19.5523 17.7758 19.5319 17.7585 19.5146ZM12.2812 17.4639C10.8304 17.4639 9.65619 16.2896 9.65619 14.8389C9.65619 13.3881 10.8304 12.2139 12.2812 12.2139C13.732 12.2139 14.9062 13.3881 14.9062 14.8389C14.9062 16.2896 13.732 17.4639 12.2812 17.4639Z" fill="#FFE600"/>
</svg>
