<svg width="24" height="25" viewBox="0 0 24 25" fill="none" xmlns="http://www.w3.org/2000/svg">
<path d="M1 3.07666V5.07667H23V3.07666C22.9997 2.54631 22.7889 2.03776 22.4139 1.66274C22.0389 1.28772 21.5304 1.07693 21 1.07666H3C2.46965 1.07693 1.96109 1.28772 1.58608 1.66274C1.21106 2.03776 1.00026 2.54631 1 3.07666ZM4 4.07667C3.86946 4.07746 3.74006 4.05235 3.61929 4.0028C3.49852 3.95324 3.38878 3.88021 3.29642 3.78795C3.20407 3.69569 3.13094 3.58602 3.08126 3.4653C3.03158 3.34458 3.00634 3.21521 3.007 3.08466C3.00514 2.81935 3.10868 2.56415 3.29488 2.37514C3.48107 2.18613 3.73469 2.07878 4 2.07666C4.26659 2.0785 4.5217 2.18535 4.71002 2.37405C4.89834 2.56275 5.00469 2.81808 5.006 3.08466C5.00522 3.21589 4.97856 3.34568 4.92755 3.4666C4.87654 3.58751 4.80219 3.69718 4.70875 3.78932C4.61531 3.88146 4.50461 3.95427 4.38299 4.00358C4.26137 4.05288 4.13123 4.07772 4 4.07667ZM7 4.07667C6.80222 4.07667 6.60888 4.01802 6.44443 3.90814C6.27998 3.79825 6.15181 3.64208 6.07612 3.45935C6.00043 3.27662 5.98063 3.07556 6.01921 2.88157C6.0578 2.68759 6.15304 2.50941 6.29289 2.36956C6.43275 2.2297 6.61093 2.13446 6.80491 2.09588C6.99889 2.05729 7.19996 2.0771 7.38268 2.15278C7.56541 2.22847 7.72159 2.35664 7.83147 2.52109C7.94135 2.68554 8 2.87888 8 3.07666C7.99895 3.34156 7.89325 3.5953 7.70594 3.78261C7.51863 3.96992 7.26489 4.07561 7 4.07667Z" fill="#00C2FF"/>
<path d="M1 6.07642V20.0764C1 20.6068 1.21071 21.1156 1.58579 21.4906C1.96086 21.8657 2.46957 22.0764 3 22.0764H21C21.5304 22.0764 22.0391 21.8657 22.4142 21.4906C22.7893 21.1156 23 20.6068 23 20.0764V6.07642H1ZM21 20.0764H3V8.07642H21V20.0764Z" fill="#00C2FF"/>
</svg>
