<svg width="24" height="25" viewBox="0 0 24 25" fill="none" xmlns="http://www.w3.org/2000/svg">
<path d="M15.75 12.9971C15.75 13.9916 15.3549 14.9455 14.6517 15.6487C13.9484 16.352 12.9946 16.7471 12 16.7471C11.0054 16.7471 10.0516 16.352 9.34835 15.6487C8.64509 14.9455 8.25 13.9916 8.25 12.9971C8.25 12.7833 8.2725 12.5746 8.31125 12.3721H7V17.3683C7 17.7158 7.28125 17.9971 7.62875 17.9971H16.3725C16.539 17.9967 16.6986 17.9304 16.8163 17.8125C16.9339 17.6946 17 17.5349 17 17.3683V12.3721H15.6888C15.7275 12.5746 15.75 12.7833 15.75 12.9971ZM12 15.4971C12.3284 15.497 12.6535 15.4322 12.9569 15.3065C13.2603 15.1807 13.5359 14.9965 13.768 14.7642C14.0002 14.5319 14.1843 14.2562 14.3099 13.9528C14.4355 13.6494 14.5001 13.3242 14.5 12.9958C14.4999 12.6674 14.4352 12.3423 14.3094 12.0389C14.1837 11.7356 13.9994 11.4599 13.7671 11.2278C13.5349 10.9956 13.2592 10.8115 12.9557 10.6859C12.6523 10.5603 12.3271 10.4957 11.9987 10.4958C11.3355 10.496 10.6996 10.7596 10.2307 11.2287C9.76188 11.6978 9.49858 12.3339 9.49875 12.9971C9.49892 13.6603 9.76253 14.2963 10.2316 14.7651C10.7007 15.2339 11.3368 15.4972 12 15.4971ZM15 10.3721H16.4988C16.5983 10.3721 16.6938 10.3326 16.7644 10.2623C16.8349 10.192 16.8747 10.0966 16.875 9.99707V8.49832C16.875 8.39853 16.8354 8.30283 16.7648 8.23227C16.6942 8.16171 16.5985 8.12207 16.4988 8.12207H15C14.9002 8.12207 14.8045 8.16171 14.734 8.23227C14.6634 8.30283 14.6238 8.39853 14.6238 8.49832V9.99707C14.625 10.2033 14.7937 10.3721 15 10.3721ZM12 0.99707C8.8174 0.99707 5.76515 2.26135 3.51472 4.51179C1.26428 6.76223 0 9.81447 0 12.9971C0 16.1797 1.26428 19.2319 3.51472 21.4824C5.76515 23.7328 8.8174 24.9971 12 24.9971C13.5759 24.9971 15.1363 24.6867 16.5922 24.0836C18.0481 23.4806 19.371 22.5967 20.4853 21.4824C21.5996 20.368 22.4835 19.0452 23.0866 17.5893C23.6896 16.1334 24 14.5729 24 12.9971C24 11.4212 23.6896 9.86078 23.0866 8.40487C22.4835 6.94896 21.5996 5.62609 20.4853 4.51179C19.371 3.39749 18.0481 2.51357 16.5922 1.91052C15.1363 1.30746 13.5759 0.99707 12 0.99707ZM18.25 17.8583C18.25 18.6221 17.625 19.2471 16.8612 19.2471H7.13875C6.375 19.2471 5.75 18.6221 5.75 17.8583V8.13582C5.75 7.37207 6.375 6.74707 7.13875 6.74707H16.8612C17.625 6.74707 18.25 7.37207 18.25 8.13582V17.8583Z" fill="white"/>
</svg>
