<svg width="169" height="18" viewBox="0 0 169 18" fill="none" xmlns="http://www.w3.org/2000/svg">
<path d="M1.74908 7.22961C0.920657 7.22961 0.249085 7.90119 0.249084 8.72961C0.249084 9.55804 0.920657 10.2296 1.74908 10.2296L1.74908 7.22961ZM168.864 8.72963L153.864 0.0693731L153.864 17.3899L168.864 8.72963ZM1.74908 10.2296L4.73329 10.2296L4.73329 7.22961L1.74908 7.22961L1.74908 10.2296ZM10.7017 10.2296L16.6701 10.2296L16.6701 7.22962L10.7017 7.22962L10.7017 10.2296ZM22.6385 10.2296L28.6069 10.2296L28.6069 7.22962L22.6385 7.22962L22.6385 10.2296ZM34.5753 10.2296L40.5437 10.2296L40.5437 7.22962L34.5753 7.22962L34.5753 10.2296ZM46.5121 10.2296L52.4805 10.2296L52.4805 7.22962L46.5121 7.22962L46.5121 10.2296ZM58.4489 10.2296L64.4173 10.2296L64.4173 7.22962L58.4489 7.22962L58.4489 10.2296ZM70.3857 10.2296L76.3541 10.2296L76.3541 7.22962L70.3857 7.22962L70.3857 10.2296ZM82.3225 10.2296L85.3067 10.2296L85.3067 7.22962L82.3225 7.22962L82.3225 10.2296ZM85.3067 10.2296L88.2909 10.2296L88.2909 7.22962L85.3067 7.22962L85.3067 10.2296ZM94.2593 10.2296L100.228 10.2296L100.228 7.22962L94.2593 7.22962L94.2593 10.2296ZM106.196 10.2296L112.165 10.2296L112.165 7.22962L106.196 7.22962L106.196 10.2296ZM118.133 10.2296L124.101 10.2296L124.101 7.22962L118.133 7.22962L118.133 10.2296ZM130.07 10.2296L136.038 10.2296L136.038 7.22963L130.07 7.22963L130.07 10.2296ZM142.007 10.2296L147.975 10.2296L147.975 7.22963L142.007 7.22963L142.007 10.2296ZM153.943 10.2296L159.912 10.2296L159.912 7.22963L153.943 7.22963L153.943 10.2296Z" fill="white"/>
</svg>
