<svg width="279" height="79" viewBox="0 0 279 79" fill="none" xmlns="http://www.w3.org/2000/svg">
<g clip-path="url(#clip0_505_26593)">
<path d="M18.1088 40.1598C18.0086 40.6109 17.4573 40.7111 16.8224 40.3436L16.7221 40.5274C14.0063 42.9367 11.1383 45.1687 8.13571 47.2095C4.99508 49.1474 -0.217003 49.6151 0.000167722 44.3362C0.211021 42.6063 0.779956 40.9394 1.67071 39.4415C3.52501 36.4011 7.5008 31.3227 11.3765 31.5064C12.5232 31.3929 13.6771 31.633 14.6835 32.1944C15.6898 32.7558 16.5004 33.6117 17.0062 34.6471C20.6327 31.1822 24.0574 27.5121 27.2633 23.6549C32.7452 17.1608 37.8328 10.3439 42.4987 3.24082L44.4533 0.283978C44.7206 -0.183775 45.5557 -3.7197e-05 46.391 0.835234C47.2263 1.67051 47.5939 2.50578 47.3099 3.05706C47.3099 3.05706 46.5749 4.25985 45.0881 6.39815C36.0338 20.6312 1.77087 74.6733 3.05719 77.7137C3.42471 78.6492 3.05708 79.1002 2.32204 78.9165C1.8736 78.7609 1.46636 78.5057 1.13072 78.1701C0.795084 77.8344 0.539928 77.4271 0.38436 76.9786C-0.734904 74.3893 11.5603 53.3237 23.3878 33.8452C21.7172 35.6828 19.8796 37.4369 18.1255 39.0072C18.1499 39.3912 18.1443 39.7766 18.1088 40.1598ZM15.0683 36.5515C14.9771 36.1363 14.7397 35.7677 14.3992 35.5131C14.0588 35.2586 13.6381 35.135 13.214 35.1649C9.87293 34.9812 6.19771 39.5083 4.6274 42.0977C3.96736 43.1307 3.46636 44.2569 3.1408 45.4388C3.96751 45.0211 4.77048 44.5582 5.54628 44.0522C8.55922 42.1116 11.4035 39.9211 14.0493 37.5037L15.0683 36.5515Z" fill="white"/>
<path d="M43.2337 37.2031C40.2421 38.6513 37.0292 39.5886 33.7282 39.9761C27.4469 53.4574 52.3882 41.9975 55.2448 36.8355C55.3265 36.6495 55.4506 36.4852 55.6072 36.3556C55.7637 36.2261 55.9483 36.135 56.1463 36.0896C56.3443 36.0441 56.5502 36.0456 56.7475 36.0939C56.9448 36.1422 57.1282 36.236 57.2828 36.3678C58.0178 37.1028 58.0179 37.4703 57.7339 38.0383C55.1612 42.5655 40.7445 52.5553 34.3463 48.947C32.7667 48.0821 31.499 46.7425 30.7225 45.1176C29.9461 43.4928 29.7002 41.6649 30.0196 39.8926C30.6471 37.3374 31.918 34.9853 33.7115 33.0601C35.5225 31.0479 37.5317 29.2233 39.7086 27.6141C42.3982 25.7598 44.8875 24.6572 45.9065 24.841C46.7754 25.0449 47.5513 25.5328 48.1115 26.2276C48.5455 26.6588 48.8728 27.1854 49.0671 27.7655C49.2614 28.3456 49.3175 28.9631 49.2309 29.5687C49.0644 30.4776 48.7482 31.3526 48.2953 32.158C47.1497 34.3074 45.3869 36.0646 43.2337 37.2031ZM36.6851 35.7162C38.1046 35.2848 39.4942 34.7602 40.8447 34.1459C42.7725 33.0127 44.364 31.3867 45.4554 29.435C45.6392 29.0675 45.7395 28.7835 45.9232 28.416C44.65 29.0356 43.4412 29.7798 42.3148 30.6378C40.2615 32.1238 38.3741 33.8264 36.6851 35.7162Z" fill="white"/>
<path d="M55.7126 39.4081C55.4299 39.707 55.0467 39.891 54.6367 39.9249C54.2267 39.9588 53.8186 39.8402 53.4907 39.5919C52.7556 38.7734 54.6936 37.1028 55.0611 36.7353L61.9939 28.3826C62.654 27.6558 63.3628 26.9749 64.1155 26.3445C64.483 25.977 65.4184 26.3445 66.0532 27.1798C66.688 28.0151 67.1725 28.9338 66.7883 29.3014L64.5831 31.4229C62.6453 33.6448 60.056 37.6207 61.075 41.8638C61.6119 43.9857 61.4477 46.2244 60.6072 48.2453C60.1708 49.0102 59.6057 49.694 58.9366 50.2667C58.2987 50.7349 57.5793 51.0805 56.815 51.2857C55.5968 51.5689 54.3178 51.409 53.2068 50.8346C47.9446 48.1451 50.8011 42.9831 50.8011 42.8829C51.0851 42.4151 51.9204 42.5989 52.739 43.3506C53.0831 43.6005 53.3573 43.9344 53.5357 44.3204C53.7141 44.7065 53.7907 45.1318 53.758 45.5558C53.758 45.656 52.4716 47.9614 52.6554 48.0616C53.2536 48.249 53.8949 48.249 54.4931 48.0616C55.1768 47.9605 55.8188 47.6713 56.3474 47.2263C56.9504 46.8032 57.4291 46.2264 57.7339 45.5558C58.4611 43.9886 58.6263 42.2188 58.2017 40.5441C58.2017 39.3413 57.3664 39.2578 59.5882 35.1817L55.7126 39.4081Z" fill="white"/>
<path d="M76.2102 29.0674C76.678 28.6999 77.5966 29.0674 78.3484 29.9027C79.1001 30.738 79.3675 31.6568 78.8998 32.0243C75.9307 34.8057 73.4314 38.0496 71.4992 41.6299C70.2129 44.2193 70.3131 45.6893 71.2318 46.1571C75.024 46.7084 85.2645 36.7352 85.2645 36.635C85.6487 36.2675 86.2836 35.5325 87.0353 36.3677C87.7871 37.203 87.4864 37.4702 87.0353 37.8378C87.0353 37.8378 71.6162 54.5432 67.6403 47.5437C66.3373 45.2383 66.9887 42.0977 68.559 38.9571C70.5193 35.2435 73.1081 31.8975 76.2102 29.0674ZM81.9401 26.3946C81.5726 26.8456 80.6538 26.3946 79.9188 25.743C79.1838 25.0915 78.7994 24.0725 79.1669 23.5212L84.3458 17.6075C84.7133 17.1565 85.5485 17.524 86.3838 18.259C87.2191 18.9941 87.4027 19.9296 87.1187 20.4808L81.9401 26.3946Z" fill="white"/>
<path d="M133.961 54.4765C134.414 54.586 134.838 54.7919 135.204 55.0802C135.57 55.3685 135.87 55.7324 136.083 56.147C136.55 56.9823 136.45 57.6171 135.715 57.6171C116.136 55.9465 101.719 56.3307 91.2785 57.8008C85.0975 68.2417 78.1648 78.3151 75.0242 78.3151C73.0475 78.2906 71.1101 77.7603 69.3965 76.7748C67.6828 75.7893 66.2501 74.3815 65.2348 72.6854C64.7074 71.7866 64.3689 70.7898 64.2396 69.7558C64.1104 68.7218 64.1932 67.6723 64.4831 66.6714C65.3833 64.426 66.9671 62.5207 69.0102 61.2254C72.8024 58.5525 79.0335 56.2138 88.6893 54.6602C90.7274 51.3191 93.9514 45.3386 95.7055 42.1979C92.8489 45.1548 86.9352 47.9279 84.8971 47.4602C81.556 46.7251 80.9379 45.1548 81.556 42.2815C82.7588 35.9167 92.8323 27.5139 98.7293 34.7975C100.767 32.4086 102.07 30.5543 102.07 30.5543C102.354 30.0865 103.173 30.3705 103.925 31.022C104.263 31.2759 104.533 31.611 104.708 31.9964C104.883 32.3818 104.958 32.805 104.927 33.2271L103.925 34.9812L103.824 35.0814C103.824 35.1817 99.1135 44.2193 93.4837 54.1089C106.957 52.9381 120.511 53.0612 133.961 54.4765ZM86.3839 58.7196C79.4512 60.2064 74.6902 62.1443 71.5997 64.3494C69.7302 65.4998 68.2738 67.2135 67.44 69.244C67.0302 70.425 67.096 71.7192 67.6238 72.8524C68.2955 73.6311 69.1378 74.2443 70.0853 74.6442C71.0328 75.044 72.0599 75.2198 73.0865 75.1578C75.5756 75.1578 81.0215 67.5902 86.3839 58.7196ZM97.376 36.4513C93.2164 31.0053 81.0214 45.3219 85.6822 45.6059C88.1379 45.7896 95.0707 41.2624 97.376 36.4513Z" fill="white"/>
<path d="M111.409 31.1055C111.693 30.6378 112.611 30.8215 113.363 31.5566C114.115 32.2916 114.566 33.3106 114.282 33.7784L111.977 37.9381C116.988 33.7784 122.418 29.719 124.439 30.2702H124.623C127.396 31.1055 127.863 32.8596 127.212 35.165C126.784 36.4073 126.259 37.6138 125.642 38.7733C124.439 41.1622 123.052 43.785 123.052 43.785C126.009 45.7228 135.982 36.9524 136.083 36.9524C136.367 36.5682 137.369 35.3821 138.121 36.2007C138.872 37.0193 138.388 37.1362 138.02 37.5872C138.02 37.5872 127.997 49.5149 123.153 46.3743C118.993 43.6847 121.031 39.6921 122.785 36.0169C123.153 35.2819 123.52 34.5469 123.804 33.8118C118.525 36.5682 106.247 48.3121 105.879 48.6796C105.512 49.0472 104.76 48.7631 104.025 48.1283C103.29 47.4935 102.822 46.4578 103.106 45.9065L111.409 31.1055Z" fill="white"/>
<path d="M186.901 1.90442C187.168 1.45337 188.103 1.72064 188.838 2.45568C189.573 3.19072 190.041 4.22646 189.757 4.6775L169.527 37.4703C174.538 33.5946 179.784 31.2893 180.335 37.3867C180.435 38.2053 180.519 44.2193 180.519 44.2193C180.886 44.687 183.86 43.9353 191.979 36.3677C192.346 36.0002 192.898 35.165 193.649 35.9C194.401 36.635 194.401 37.3867 194.017 37.7543C184.879 46.2573 180.452 48.3789 178.314 46.107C176.176 43.835 176.844 39.4248 176.56 36.0837C176.292 33.7784 161.525 50.3001 161.525 50.4003C161.241 50.7678 160.422 50.4003 159.671 49.7488C158.919 49.0972 158.468 48.0783 158.752 47.5437L186.901 1.90442Z" fill="white"/>
<path d="M195.303 31.7403C195.671 31.473 196.59 31.8405 197.341 32.6758C198.093 33.5111 198.26 34.4299 197.893 34.7974C197.63 34.9566 197.384 35.1413 197.158 35.3487C195.076 37.4491 193.525 40.0144 192.63 42.8327C191.879 45.2383 191.511 47.4435 191.979 48.379C192.549 48.5652 193.163 48.5652 193.733 48.379C194.776 48.0076 195.724 47.4084 196.506 46.6249C197.994 45.2281 199.212 43.5688 200.098 41.7302C200.729 40.5237 201.228 39.2522 201.584 37.9381C200.038 36.6641 198.803 35.0525 197.976 33.2271C197.315 31.8124 197 30.2605 197.057 28.6999C197.241 27.3969 197.792 26.4781 198.912 26.2944C199.709 26.2223 200.511 26.3849 201.217 26.7621C202.485 27.4706 203.488 28.5731 204.074 29.9027C204.606 30.9482 204.951 32.079 205.093 33.2438C205.277 34.5627 205.277 35.9008 205.093 37.2197C207.919 37.8977 210.897 37.4987 213.445 36.1005C213.896 35.8332 214.364 35.4656 215.116 36.2842C215.868 37.1028 215.667 37.771 215.216 38.0383C210.873 40.4439 207.632 40.8114 204.775 39.8091C204.452 41.4209 203.889 42.9751 203.105 44.4197C202.164 46.3608 200.879 48.1154 199.313 49.5984C198.408 50.4505 197.339 51.1098 196.172 51.5363C195.577 51.7241 194.95 51.7883 194.33 51.7251C193.709 51.6619 193.108 51.4726 192.564 51.1687C191.869 50.7834 191.248 50.2803 190.726 49.682L190.175 49.1307C188.688 47.0091 188.788 43.5845 189.807 40.3603C190.735 37.3592 192.381 34.6297 194.602 32.4085C194.735 32.2081 195.019 31.9241 195.303 31.7403ZM201.985 35.7162C202.17 34.3358 202.17 32.937 201.985 31.5566C201.911 30.8664 201.754 30.1877 201.518 29.5352H201.601C201.518 29.4349 201.234 29.4349 200.966 29.5352C200.415 29.5352 200.131 30.0865 200.031 30.9218C199.97 31.9071 200.165 32.8915 200.599 33.7784C200.901 34.5427 201.403 35.2119 202.052 35.7162H201.985Z" fill="white"/>
<path d="M218.591 28.3325C218.958 27.965 219.877 28.3324 220.612 29.0675C221.347 29.8025 221.631 30.8216 221.347 31.2893C214.331 39.3246 213.78 44.8708 214.431 45.4221C215.534 46.3409 222.65 41.8137 227.628 33.4109L227.912 33.0434C228.28 32.6759 229.199 32.9431 229.95 33.7784C230.702 34.6137 231.053 35.5325 230.685 35.9C230.502 36.1485 230.282 36.3681 230.034 36.5515C228.831 38.0216 221.915 47.8277 228.831 44.4866C232.795 42.4474 236.289 39.6023 239.088 36.1339C239.456 35.6661 239.823 34.7474 240.659 35.5826C241.494 36.4179 240.943 36.869 240.659 37.2532C238.153 40.494 234.645 44.8374 230.953 46.5915C227.712 48.1618 223.652 47.4101 223.101 43.4509C213.963 51.3024 206.396 49.8157 211.558 38.5562C213.377 34.8157 215.748 31.3694 218.591 28.3325Z" fill="white"/>
<path d="M239.088 39.4081C238.805 39.707 238.422 39.891 238.012 39.9249C237.602 39.9588 237.194 39.8402 236.866 39.5919C236.131 38.7734 238.069 37.1028 238.537 36.7353L245.453 28.3826C246.113 27.6558 246.822 26.9749 247.574 26.3445C247.942 25.977 248.878 26.3445 249.529 27.1798C250.181 28.0151 250.632 28.9338 250.264 29.3014L248.042 31.4229C246.104 33.6448 243.515 37.6207 244.534 41.8638C245.08 43.985 244.915 46.2264 244.066 48.2453C243.635 49.0136 243.069 49.6982 242.396 50.2667C241.758 50.7349 241.038 51.0805 240.274 51.2857C239.056 51.5689 237.777 51.409 236.666 50.8346C231.404 48.1451 234.277 42.9831 234.277 42.8829C234.544 42.4151 235.379 42.5989 236.215 43.3506C236.555 43.6038 236.827 43.9382 237.005 44.3234C237.183 44.7086 237.262 45.1323 237.234 45.5558C237.234 45.656 235.931 47.9614 236.115 48.0616C236.718 48.2493 237.365 48.2493 237.969 48.0616C238.647 47.9601 239.284 47.6708 239.806 47.2263C240.413 46.8076 240.893 46.2295 241.193 45.5558C241.928 43.9908 242.094 42.2181 241.661 40.5441C241.661 39.3413 240.826 39.2578 243.047 35.1817L239.088 39.4081Z" fill="white"/>
<path d="M263.662 37.2031C260.67 38.6513 257.457 39.5886 254.156 39.9761C247.858 53.4574 272.816 41.9975 275.673 36.8355C275.755 36.6495 275.879 36.4852 276.035 36.3556C276.192 36.2261 276.377 36.135 276.575 36.0896C276.773 36.0441 276.979 36.0456 277.176 36.0939C277.373 36.1422 277.557 36.236 277.711 36.3678C278.446 37.1028 278.446 37.4703 278.162 38.0383C275.573 42.5655 261.173 52.5553 254.775 48.947C253.197 48.0788 251.93 46.7393 251.152 45.1159C250.373 43.4925 250.121 41.6663 250.431 39.8926C251.072 37.3392 252.348 34.9891 254.14 33.0601C255.947 31.0439 257.957 29.219 260.137 27.6141C262.81 25.7598 265.316 24.6572 266.335 24.841C267.202 25.0496 267.976 25.5366 268.54 26.2276C268.974 26.6588 269.301 27.1854 269.495 27.7655C269.69 28.3456 269.746 28.9631 269.659 29.5687C269.493 30.4776 269.177 31.3526 268.724 32.158C267.573 34.3037 265.811 36.0596 263.662 37.2031ZM257.097 35.7162C258.518 35.2903 259.908 34.7656 261.256 34.1459C263.189 33.0138 264.786 31.3879 265.884 29.435C266.067 29.0675 266.151 28.7835 266.351 28.416C265.078 29.0356 263.869 29.7798 262.743 30.6378C260.688 32.1278 258.795 33.83 257.097 35.7162Z" fill="white"/>
</g>
<defs>
<clipPath id="clip0_505_26593">
<rect width="278.346" height="79" fill="white"/>
</clipPath>
</defs>
</svg>
