<svg width="180" height="71" viewBox="0 0 180 71" fill="none" xmlns="http://www.w3.org/2000/svg">
<path d="M179.981 6.34982L169.11 0.709802L163.47 11.5813L174.341 17.2214L179.981 6.34982ZM1.10345 61.9127C0.721956 62.6481 1.00882 63.5535 1.74418 63.935L13.7275 70.1518C14.4629 70.5333 15.3683 70.2464 15.7498 69.5111C16.1313 68.7757 15.8444 67.8703 15.1091 67.4888L4.45718 61.9628L9.98325 51.3109C10.3647 50.5755 10.0779 49.6701 9.34252 49.2886C8.60716 48.9071 7.70177 49.194 7.32028 49.9294L1.10345 61.9127ZM2.888 64.0334L5.70951 63.1395L4.80338 60.2796L1.98187 61.1735L2.888 64.0334ZM11.3525 61.3515L16.9955 59.5636L16.0894 56.7037L10.4464 58.4916L11.3525 61.3515ZM22.6385 57.7757L28.2816 55.9877L27.3754 53.1279L21.7324 54.9158L22.6385 57.7757ZM33.9246 54.1998L39.5676 52.4119L38.6615 49.552L33.0185 51.3399L33.9246 54.1998ZM45.2106 50.624L50.8536 48.836L49.9475 45.9761L44.3045 47.7641L45.2106 50.624ZM56.4966 47.0481L62.1396 45.2602L61.2335 42.4003L55.5905 44.1882L56.4966 47.0481ZM67.7827 43.4722L73.4257 41.6843L72.5195 38.8244L66.8765 40.6123L67.7827 43.4722ZM79.0687 39.8964L84.7117 38.1084L83.8056 35.2486L78.1626 37.0365L79.0687 39.8964ZM90.3547 36.3205L95.9977 34.5326L95.0916 31.6727L89.4486 33.4606L90.3547 36.3205ZM101.641 32.7446L107.284 30.9567L106.378 28.0968L100.735 29.8848L101.641 32.7446ZM112.927 29.1688L118.57 27.3808L117.664 24.521L112.021 26.3089L112.927 29.1688ZM124.213 25.5929L129.856 23.805L128.95 20.9451L123.307 22.733L124.213 25.5929ZM135.499 22.0171L141.142 20.2291L140.236 17.3692L134.593 19.1572L135.499 22.0171ZM146.785 18.4412L152.428 16.6533L151.522 13.7934L145.879 15.5813L146.785 18.4412ZM158.071 14.8653L163.714 13.0774L162.808 10.2175L157.165 12.0055L158.071 14.8653ZM169.357 11.2895L172.178 10.3955L171.272 7.53563L168.451 8.4296L169.357 11.2895Z" fill="#F2F2F2"/>
</svg>
