<svg width="121" height="50" viewBox="0 0 121 50" fill="none" xmlns="http://www.w3.org/2000/svg">
<path d="M9.00016 0.339834L0.3399 9.00009L9.00015 17.6603L17.6604 9.00009L9.00016 0.339834ZM9.00015 38.5002L7.50015 38.5002L7.50015 40.0002L9.00015 40.0002L9.00015 38.5002ZM74 38.5002L74 40.0002L74 38.5002ZM120.061 39.5609C120.646 38.9751 120.646 38.0253 120.061 37.4395L110.515 27.8936C109.929 27.3078 108.979 27.3078 108.393 27.8936C107.808 28.4794 107.808 29.4291 108.393 30.0149L116.879 38.5002L108.393 46.9855C107.808 47.5713 107.808 48.521 108.393 49.1068C108.979 49.6926 109.929 49.6926 110.515 49.1068L120.061 39.5609ZM119 37.0002L116.187 37.0002L116.188 40.0002L119 40.0002L119 37.0002ZM110.562 37.0002L104.937 37.0002L104.937 40.0002L110.562 40.0002L110.562 37.0002ZM99.3125 37.0002L93.6875 37.0002L93.6875 40.0002L99.3125 40.0002L99.3125 37.0002ZM88.0625 37.0002L82.4375 37.0002L82.4375 40.0002L88.0625 40.0002L88.0625 37.0002ZM76.8125 37.0002L74 37.0002L74 40.0002L76.8125 40.0002L76.8125 37.0002ZM74 37.0002L70.75 37.0002L70.75 40.0002L74 40.0002L74 37.0002ZM64.25 37.0002L57.75 37.0002L57.75 40.0002L64.25 40.0002L64.25 37.0002ZM51.25 37.0002L44.7501 37.0002L44.7501 40.0002L51.25 40.0002L51.25 37.0002ZM38.2501 37.0002L31.7501 37.0002L31.7501 40.0002L38.2501 40.0002L38.2501 37.0002ZM25.2501 37.0002L18.7501 37.0002L18.7501 40.0002L25.2501 40.0002L25.2501 37.0002ZM12.2501 37.0002L9.00015 37.0002L9.00015 40.0002L12.2501 40.0002L12.2501 37.0002ZM10.5002 38.5002L10.5002 34.8127L7.50015 34.8127L7.50015 38.5002L10.5002 38.5002ZM10.5002 27.4377L10.5002 20.0626L7.50015 20.0626L7.50015 27.4377L10.5002 27.4377ZM10.5002 12.6876L10.5002 9.00009L7.50016 9.00009L7.50015 12.6876L10.5002 12.6876Z" fill="white"/>
</svg>
