<svg width="23" height="105" viewBox="0 0 23 105" fill="none" xmlns="http://www.w3.org/2000/svg">
<path d="M11.5 0.339746L2.83975 9L11.5 17.6603L20.1603 9L11.5 0.339746ZM10.4393 104.061C11.0251 104.646 11.9749 104.646 12.5607 104.061L22.1066 94.5147C22.6924 93.9289 22.6924 92.9792 22.1066 92.3934C21.5208 91.8076 20.5711 91.8076 19.9853 92.3934L11.5 100.879L3.01472 92.3934C2.42893 91.8076 1.47919 91.8076 0.893398 92.3934C0.307611 92.9792 0.307611 93.9289 0.893398 94.5147L10.4393 104.061ZM10 9V11.9375H13V9H10ZM10 17.8125V23.6875H13V17.8125H10ZM10 29.5625V35.4375H13V29.5625H10ZM10 41.3125V47.1875H13V41.3125H10ZM10 53.0625V58.9375H13V53.0625H10ZM10 64.8125V70.6875H13V64.8125H10ZM10 76.5625V82.4375H13V76.5625H10ZM10 88.3125V94.1875H13V88.3125H10ZM10 100.062V103H13V100.062H10Z" fill="#F2F2F2"/>
</svg>
