<svg width="94" height="16" viewBox="0 0 94 16" fill="none" xmlns="http://www.w3.org/2000/svg">
<path d="M0.0812891 15.7137V4.12168H4.97729C6.27329 4.12168 7.22729 4.46968 7.83929 5.16568C8.45129 5.86168 8.75729 6.76168 8.75729 7.86568C8.75729 8.99368 8.40929 9.88768 7.71329 10.5477C7.02929 11.1957 6.09329 11.5197 4.90529 11.5197H1.55729V15.7137H0.0812891ZM1.55729 10.3677H4.67129C5.53529 10.3677 6.18329 10.1457 6.61529 9.70168C7.05929 9.24568 7.28129 8.63368 7.28129 7.86568C7.28129 7.04968 7.07129 6.41968 6.65129 5.97568C6.24329 5.51968 5.61329 5.29168 4.76129 5.29168H1.55729V10.3677ZM15.5439 15.8937C13.7319 15.8937 12.3879 15.4197 11.5119 14.4717C10.6359 13.5117 10.1979 11.9937 10.1979 9.91768C10.1979 7.84168 10.6359 6.32968 11.5119 5.38168C12.3879 4.42168 13.7319 3.94168 15.5439 3.94168C17.3679 3.94168 18.7119 4.42168 19.5759 5.38168C20.4519 6.32968 20.8899 7.84168 20.8899 9.91768C20.8899 11.9937 20.4519 13.5117 19.5759 14.4717C18.7119 15.4197 17.3679 15.8937 15.5439 15.8937ZM15.5439 14.6337C16.4199 14.6337 17.1399 14.4837 17.7039 14.1837C18.2799 13.8837 18.7059 13.3917 18.9819 12.7077C19.2699 12.0117 19.4139 11.0817 19.4139 9.91768C19.4139 8.75368 19.2699 7.82968 18.9819 7.14568C18.7059 6.44968 18.2799 5.95168 17.7039 5.65168C17.1399 5.35168 16.4199 5.20168 15.5439 5.20168C14.6679 5.20168 13.9419 5.35168 13.3659 5.65168C12.8019 5.95168 12.3759 6.44968 12.0879 7.14568C11.8119 7.82968 11.6739 8.75368 11.6739 9.91768C11.6739 11.0817 11.8119 12.0117 12.0879 12.7077C12.3759 13.3917 12.8019 13.8837 13.3659 14.1837C13.9419 14.4837 14.6679 14.6337 15.5439 14.6337ZM23.0559 15.7137V4.12168H28.1499C29.3979 4.12168 30.3039 4.44568 30.8679 5.09368C31.4439 5.74168 31.7319 6.61768 31.7319 7.72168C31.7319 8.57368 31.5219 9.28168 31.1019 9.84568C30.6939 10.4097 30.0819 10.7877 29.2659 10.9797C29.5059 11.1237 29.6859 11.2917 29.8059 11.4837C29.9379 11.6637 30.0699 11.9097 30.2019 12.2217L31.7139 15.7137H30.2019L28.7259 12.3477C28.5699 11.9877 28.3779 11.7297 28.1499 11.5737C27.9339 11.4177 27.5439 11.3397 26.9799 11.3397H24.5319V15.7137H23.0559ZM24.5319 10.1877H27.7359C28.5159 10.1877 29.1279 9.99568 29.5719 9.61168C30.0279 9.21568 30.2559 8.58568 30.2559 7.72168C30.2559 6.10168 29.4819 5.29168 27.9339 5.29168H24.5319V10.1877ZM37.016 15.7137V5.29168H33.164V4.12168H42.344V5.29168H38.492V15.7137H37.016ZM44.1496 15.7137V4.12168H45.6256V15.7137H44.1496ZM48.1399 15.7137V4.12168H55.7359V5.29168H49.6159V9.34168H55.0699V10.4937H49.6159V15.7137H48.1399ZM61.9002 3.32968L63.1782 0.305683H64.5102L63.0882 3.32968H61.9002ZM62.5302 15.8937C60.7182 15.8937 59.3742 15.4197 58.4982 14.4717C57.6222 13.5117 57.1842 11.9937 57.1842 9.91768C57.1842 7.84168 57.6222 6.32968 58.4982 5.38168C59.3742 4.42168 60.7182 3.94168 62.5302 3.94168C64.3542 3.94168 65.6982 4.42168 66.5622 5.38168C67.4382 6.32968 67.8762 7.84168 67.8762 9.91768C67.8762 11.9937 67.4382 13.5117 66.5622 14.4717C65.6982 15.4197 64.3542 15.8937 62.5302 15.8937ZM62.5302 14.6337C63.4062 14.6337 64.1262 14.4837 64.6902 14.1837C65.2662 13.8837 65.6922 13.3917 65.9682 12.7077C66.2562 12.0117 66.4002 11.0817 66.4002 9.91768C66.4002 8.75368 66.2562 7.82968 65.9682 7.14568C65.6922 6.44968 65.2662 5.95168 64.6902 5.65168C64.1262 5.35168 63.4062 5.20168 62.5302 5.20168C61.6542 5.20168 60.9282 5.35168 60.3522 5.65168C59.7882 5.95168 59.3622 6.44968 59.0742 7.14568C58.7982 7.82968 58.6602 8.75368 58.6602 9.91768C58.6602 11.0817 58.7982 12.0117 59.0742 12.7077C59.3622 13.3917 59.7882 13.8837 60.3522 14.1837C60.9282 14.4837 61.6542 14.6337 62.5302 14.6337ZM70.0422 15.7137V4.12168H71.5182V14.5617H77.6922V15.7137H70.0422ZM79.4993 15.7137V4.12168H80.9753V15.7137H79.4993ZM88.4755 15.8937C86.6635 15.8937 85.3195 15.4197 84.4435 14.4717C83.5675 13.5117 83.1295 11.9937 83.1295 9.91768C83.1295 7.84168 83.5675 6.32968 84.4435 5.38168C85.3195 4.42168 86.6635 3.94168 88.4755 3.94168C90.2995 3.94168 91.6435 4.42168 92.5075 5.38168C93.3835 6.32968 93.8215 7.84168 93.8215 9.91768C93.8215 11.9937 93.3835 13.5117 92.5075 14.4717C91.6435 15.4197 90.2995 15.8937 88.4755 15.8937ZM88.4755 14.6337C89.3515 14.6337 90.0715 14.4837 90.6355 14.1837C91.2115 13.8837 91.6375 13.3917 91.9135 12.7077C92.2015 12.0117 92.3455 11.0817 92.3455 9.91768C92.3455 8.75368 92.2015 7.82968 91.9135 7.14568C91.6375 6.44968 91.2115 5.95168 90.6355 5.65168C90.0715 5.35168 89.3515 5.20168 88.4755 5.20168C87.5995 5.20168 86.8735 5.35168 86.2975 5.65168C85.7335 5.95168 85.3075 6.44968 85.0195 7.14568C84.7435 7.82968 84.6055 8.75368 84.6055 9.91768C84.6055 11.0817 84.7435 12.0117 85.0195 12.7077C85.3075 13.3917 85.7335 13.8837 86.2975 14.1837C86.8735 14.4837 87.5995 14.6337 88.4755 14.6337Z" fill="url(#paint0_linear_56_1814)"/>
<defs>
<linearGradient id="paint0_linear_56_1814" x1="46.8213" y1="-0.286317" x2="94.0565" y2="11.4274" gradientUnits="userSpaceOnUse">
<stop stop-color="#73C8FF"/>
<stop offset="0.760417" stop-color="#0096F7"/>
<stop offset="0.973958" stop-color="#0096F7"/>
</linearGradient>
</defs>
</svg>
