<svg width="102" height="18" viewBox="0 0 102 18" fill="none" xmlns="http://www.w3.org/2000/svg">
<path d="M5.99362 12.8937C4.18162 12.8937 2.83762 12.4197 1.96162 11.4717C1.08562 10.5117 0.64762 8.99368 0.64762 6.91768C0.64762 4.84168 1.08562 3.32968 1.96162 2.38168C2.83762 1.42168 4.18162 0.941683 5.99362 0.941683C7.81762 0.941683 9.16162 1.42168 10.0256 2.38168C10.9016 3.32968 11.3396 4.84168 11.3396 6.91768C11.3396 8.99368 10.9016 10.5117 10.0256 11.4717C9.16162 12.4197 7.81762 12.8937 5.99362 12.8937ZM5.99362 11.6337C6.86962 11.6337 7.58962 11.4837 8.15362 11.1837C8.72962 10.8837 9.15562 10.3917 9.43162 9.70768C9.71962 9.01168 9.86362 8.08168 9.86362 6.91768C9.86362 5.75368 9.71962 4.82968 9.43162 4.14568C9.15562 3.44968 8.72962 2.95168 8.15362 2.65168C7.58962 2.35168 6.86962 2.20168 5.99362 2.20168C5.11762 2.20168 4.39162 2.35168 3.81562 2.65168C3.25162 2.95168 2.82562 3.44968 2.53762 4.14568C2.26162 4.82968 2.12362 5.75368 2.12362 6.91768C2.12362 8.08168 2.26162 9.01168 2.53762 9.70768C2.82562 10.3917 3.25162 10.8837 3.81562 11.1837C4.39162 11.4837 5.11762 11.6337 5.99362 11.6337ZM13.5057 12.7137V1.12168H18.5997C19.8477 1.12168 20.7537 1.44568 21.3177 2.09368C21.8937 2.74168 22.1817 3.61768 22.1817 4.72168C22.1817 5.57368 21.9717 6.28168 21.5517 6.84568C21.1437 7.40968 20.5317 7.78768 19.7157 7.97968C19.9557 8.12368 20.1357 8.29168 20.2557 8.48368C20.3877 8.66368 20.5197 8.90968 20.6517 9.22168L22.1637 12.7137H20.6517L19.1757 9.34768C19.0197 8.98768 18.8277 8.72968 18.5997 8.57368C18.3837 8.41768 17.9937 8.33968 17.4297 8.33968H14.9817V12.7137H13.5057ZM14.9817 7.18768H18.1857C18.9657 7.18768 19.5777 6.99568 20.0217 6.61168C20.4777 6.21568 20.7057 5.58568 20.7057 4.72168C20.7057 3.10168 19.9317 2.29168 18.3837 2.29168H14.9817V7.18768ZM28.6781 17.0337C28.4861 17.0337 28.2581 17.0157 27.9941 16.9797C27.7421 16.9557 27.5501 16.9257 27.4181 16.8897V15.9897C27.7661 16.0857 28.1441 16.1337 28.5521 16.1337C29.1161 16.1337 29.5241 16.0677 29.7761 15.9357C30.0401 15.8037 30.1721 15.5517 30.1721 15.1797C30.1721 14.8317 30.0461 14.6037 29.7941 14.4957C29.5421 14.3997 29.1581 14.3517 28.6421 14.3517H27.9761L28.4441 12.8577C26.8601 12.7017 25.6721 12.1137 24.8801 11.0937C24.1001 10.0737 23.7101 8.76568 23.7101 7.16968C23.7101 5.90968 23.9021 4.81168 24.2861 3.87568C24.6701 2.93968 25.2701 2.21968 26.0861 1.71568C26.9021 1.19968 27.9581 0.941683 29.2541 0.941683C29.9261 0.941683 30.5321 0.989683 31.0721 1.08568C31.6241 1.18168 32.1401 1.31368 32.6201 1.48168V2.77768C32.1401 2.59768 31.6301 2.45968 31.0901 2.36368C30.5501 2.25568 29.9801 2.20168 29.3801 2.20168C28.3361 2.20168 27.5081 2.39968 26.8961 2.79568C26.2841 3.19168 25.8461 3.76168 25.5821 4.50568C25.3181 5.24968 25.1861 6.13768 25.1861 7.16968C25.1861 8.59768 25.5221 9.70168 26.1941 10.4817C26.8781 11.2497 27.9521 11.6337 29.4161 11.6337C29.9561 11.6337 30.5021 11.5917 31.0541 11.5077C31.6181 11.4237 32.1401 11.2917 32.6201 11.1117V12.4257C32.1761 12.5577 31.6961 12.6657 31.1801 12.7497C30.6641 12.8337 30.1001 12.8817 29.4881 12.8937L29.2541 13.5777C29.9141 13.5777 30.4121 13.7157 30.7481 13.9917C31.0841 14.2797 31.2521 14.6817 31.2521 15.1977C31.2521 15.7857 31.0421 16.2357 30.6221 16.5477C30.2141 16.8717 29.5661 17.0337 28.6781 17.0337ZM33.6945 12.7137L38.1045 1.12168H39.8325L44.2245 12.7137H42.7125L41.4885 9.52768H36.4485L35.2245 12.7137H33.6945ZM36.7005 8.35768H41.2185L38.9505 2.39968L36.7005 8.35768ZM46.3768 12.7137V1.12168H47.9608L51.8848 9.16768L55.8088 1.12168H57.3928V12.7137H55.9348V3.42568L52.3888 10.6977H51.3988L47.8348 3.42568V12.7137H46.3768ZM59.9119 12.7137V1.12168H67.7419V2.29168H61.3879V6.34168H67.0939V7.49368H61.3879V11.5617H67.7419V12.7137H59.9119ZM69.8963 12.7137V1.12168H71.2283L77.8343 10.4457V1.12168H79.3103V12.7137H77.9603L71.3723 3.40768V12.7137H69.8963ZM84.9638 12.7137V2.29168H81.1118V1.12168H90.2918V2.29168H86.4398V12.7137H84.9638ZM96.3628 12.8937C94.5508 12.8937 93.2068 12.4197 92.3308 11.4717C91.4548 10.5117 91.0168 8.99368 91.0168 6.91768C91.0168 4.84168 91.4548 3.32968 92.3308 2.38168C93.2068 1.42168 94.5508 0.941683 96.3628 0.941683C98.1868 0.941683 99.5308 1.42168 100.395 2.38168C101.271 3.32968 101.709 4.84168 101.709 6.91768C101.709 8.99368 101.271 10.5117 100.395 11.4717C99.5308 12.4197 98.1868 12.8937 96.3628 12.8937ZM96.3628 11.6337C97.2388 11.6337 97.9588 11.4837 98.5228 11.1837C99.0988 10.8837 99.5248 10.3917 99.8008 9.70768C100.089 9.01168 100.233 8.08168 100.233 6.91768C100.233 5.75368 100.089 4.82968 99.8008 4.14568C99.5248 3.44968 99.0988 2.95168 98.5228 2.65168C97.9588 2.35168 97.2388 2.20168 96.3628 2.20168C95.4868 2.20168 94.7608 2.35168 94.1848 2.65168C93.6208 2.95168 93.1948 3.44968 92.9068 4.14568C92.6308 4.82968 92.4928 5.75368 92.4928 6.91768C92.4928 8.08168 92.6308 9.01168 92.9068 9.70768C93.1948 10.3917 93.6208 10.8837 94.1848 11.1837C94.7608 11.4837 95.4868 11.6337 96.3628 11.6337Z" fill="url(#paint0_linear_56_1816)"/>
<defs>
<linearGradient id="paint0_linear_56_1816" x1="49.5992" y1="-3.28631" x2="97.8382" y2="8.83803" gradientUnits="userSpaceOnUse">
<stop stop-color="#FF97B9"/>
<stop offset="1" stop-color="#FF6698"/>
</linearGradient>
</defs>
</svg>
