<svg width="19" height="363" viewBox="0 0 19 363" fill="none" xmlns="http://www.w3.org/2000/svg">
<path d="M8.05801 361C8.05801 361.828 8.72958 362.5 9.55801 362.5C10.3864 362.5 11.058 361.828 11.058 361L8.05801 361ZM9.5576 0.5L0.897383 15.5L18.2179 15.5L9.5576 0.5ZM9.55799 164L11.058 164L9.55799 164ZM11.058 361L11.058 357.922L8.05801 357.922L8.05801 361L11.058 361ZM11.058 351.766L11.058 345.609L8.05801 345.609L8.05801 351.766L11.058 351.766ZM11.058 339.453L11.058 333.297L8.05801 333.297L8.05801 339.453L11.058 339.453ZM11.058 327.141L11.058 320.984L8.058 320.984L8.05801 327.141L11.058 327.141ZM11.058 314.828L11.058 308.672L8.058 308.672L8.058 314.828L11.058 314.828ZM11.058 302.516L11.058 296.359L8.058 296.359L8.058 302.516L11.058 302.516ZM11.058 290.203L11.058 284.047L8.058 284.047L8.058 290.203L11.058 290.203ZM11.058 277.891L11.058 271.734L8.058 271.734L8.058 277.891L11.058 277.891ZM11.058 265.578L11.058 259.422L8.058 259.422L8.058 265.578L11.058 265.578ZM11.058 253.266L11.058 247.109L8.058 247.109L8.058 253.266L11.058 253.266ZM11.058 240.953L11.058 234.797L8.058 234.797L8.058 240.953L11.058 240.953ZM11.058 228.641L11.058 222.484L8.058 222.484L8.058 228.641L11.058 228.641ZM11.058 216.328L11.058 210.172L8.058 210.172L8.058 216.328L11.058 216.328ZM11.058 204.016L11.058 197.859L8.05799 197.859L8.058 204.016L11.058 204.016ZM11.058 191.703L11.058 185.547L8.05799 185.547L8.05799 191.703L11.058 191.703ZM11.058 179.391L11.058 173.234L8.05799 173.234L8.05799 179.391L11.058 179.391ZM11.058 167.078L11.058 164L8.05799 164L8.05799 167.078L11.058 167.078ZM11.058 164L11.058 161.08L8.05799 161.08L8.05799 164L11.058 164ZM11.058 155.241L11.058 149.402L8.05796 149.402L8.05797 155.241L11.058 155.241ZM11.0579 143.562L11.0579 137.723L8.05793 137.723L8.05794 143.563L11.0579 143.562ZM11.0579 131.884L11.0579 126.045L8.0579 126.045L8.05792 131.884L11.0579 131.884ZM11.0579 120.205L11.0579 114.366L8.05787 114.366L8.05789 120.205L11.0579 120.205ZM11.0579 108.527L11.0578 102.687L8.05785 102.688L8.05786 108.527L11.0579 108.527ZM11.0578 96.8482L11.0578 91.0089L8.05782 91.0089L8.05783 96.8482L11.0578 96.8482ZM11.0578 85.1696L11.0578 79.3304L8.05779 79.3304L8.0578 85.1696L11.0578 85.1696ZM11.0578 73.4911L11.0578 67.6518L8.05776 67.6518L8.05778 73.4911L11.0578 73.4911ZM11.0577 61.8125L11.0577 55.9732L8.05773 55.9732L8.05775 61.8125L11.0577 61.8125ZM11.0577 50.1339L11.0577 44.2946L8.05771 44.2946L8.05772 50.1339L11.0577 50.1339ZM11.0577 38.4553L11.0577 32.6161L8.05768 32.6161L8.05769 38.4554L11.0577 38.4553ZM11.0577 26.7768L11.0577 20.9375L8.05765 20.9375L8.05766 26.7768L11.0577 26.7768ZM11.0576 15.0982L11.0576 9.25894L8.05762 9.25894L8.05764 15.0982L11.0576 15.0982Z" fill="white"/>
</svg>
