<svg width="77" height="18" viewBox="0 0 77 18" fill="none" xmlns="http://www.w3.org/2000/svg">
<path d="M3.87214 12.8937C2.43214 12.8937 1.26814 12.7137 0.380144 12.3537V11.0397C0.884144 11.2317 1.41814 11.3817 1.98214 11.4897C2.55814 11.5857 3.14614 11.6337 3.74614 11.6337C4.77814 11.6337 5.55214 11.4957 6.06814 11.2197C6.58414 10.9317 6.84214 10.4217 6.84214 9.68968C6.84214 9.23368 6.73414 8.87368 6.51814 8.60968C6.31414 8.33368 5.97214 8.10568 5.49214 7.92568C5.01214 7.73368 4.37014 7.54168 3.56614 7.34968C2.29414 7.03768 1.40014 6.63568 0.884144 6.14368C0.368144 5.63968 0.110144 4.96768 0.110144 4.12768C0.110144 3.14368 0.464144 2.36968 1.17214 1.80568C1.88014 1.22968 2.96014 0.941683 4.41214 0.941683C5.08414 0.941683 5.70814 0.989683 6.28414 1.08568C6.86014 1.18168 7.30414 1.28368 7.61614 1.39168V2.68768C7.18414 2.53168 6.71614 2.41168 6.21214 2.32768C5.70814 2.24368 5.18614 2.20168 4.64614 2.20168C3.66214 2.20168 2.90614 2.34568 2.37814 2.63368C1.85014 2.92168 1.58614 3.41968 1.58614 4.12768C1.58614 4.52368 1.67614 4.84768 1.85614 5.09968C2.04814 5.33968 2.36614 5.54968 2.81014 5.72968C3.25414 5.89768 3.87214 6.07768 4.66414 6.26968C5.61214 6.49768 6.35014 6.77368 6.87814 7.09768C7.40614 7.40968 7.77814 7.78168 7.99414 8.21368C8.21014 8.64568 8.31814 9.13768 8.31814 9.68968C8.31814 10.7097 7.94614 11.5017 7.20214 12.0657C6.45814 12.6177 5.34814 12.8937 3.87214 12.8937ZM10.4721 12.7137V1.12168H18.3021V2.29168H11.9481V6.34168H17.6541V7.49368H11.9481V11.5617H18.3021V12.7137H10.4721ZM20.4565 12.7137V1.12168H25.5505C26.7985 1.12168 27.7045 1.44568 28.2685 2.09368C28.8445 2.74168 29.1325 3.61768 29.1325 4.72168C29.1325 5.57368 28.9225 6.28168 28.5025 6.84568C28.0945 7.40968 27.4825 7.78768 26.6665 7.97968C26.9065 8.12368 27.0865 8.29168 27.2065 8.48368C27.3385 8.66368 27.4705 8.90968 27.6025 9.22168L29.1145 12.7137H27.6025L26.1265 9.34768C25.9705 8.98768 25.7785 8.72968 25.5505 8.57368C25.3345 8.41768 24.9445 8.33968 24.3805 8.33968H21.9325V12.7137H20.4565ZM21.9325 7.18768H25.1365C25.9165 7.18768 26.5285 6.99568 26.9725 6.61168C27.4285 6.21568 27.6565 5.58568 27.6565 4.72168C27.6565 3.10168 26.8825 2.29168 25.3345 2.29168H21.9325V7.18768ZM34.1569 12.7137L29.7469 1.12168H31.2769L35.0029 11.2197L38.7469 1.12168H40.2769L35.8849 12.7137H34.1569ZM42.1655 12.7137V1.12168H43.6415V12.7137H42.1655ZM50.7637 17.0337C50.5717 17.0337 50.3437 17.0157 50.0797 16.9797C49.8277 16.9557 49.6357 16.9257 49.5037 16.8897V15.9897C49.8517 16.0857 50.2297 16.1337 50.6377 16.1337C51.2017 16.1337 51.6097 16.0677 51.8617 15.9357C52.1257 15.8037 52.2577 15.5517 52.2577 15.1797C52.2577 14.8317 52.1317 14.6037 51.8797 14.4957C51.6277 14.3997 51.2437 14.3517 50.7277 14.3517H50.0617L50.5297 12.8577C48.9457 12.7017 47.7577 12.1137 46.9657 11.0937C46.1857 10.0737 45.7957 8.76568 45.7957 7.16968C45.7957 5.90968 45.9877 4.81168 46.3717 3.87568C46.7557 2.93968 47.3557 2.21968 48.1717 1.71568C48.9877 1.19968 50.0437 0.941683 51.3397 0.941683C52.0117 0.941683 52.6177 0.989683 53.1577 1.08568C53.7097 1.18168 54.2257 1.31368 54.7057 1.48168V2.77768C54.2257 2.59768 53.7157 2.45968 53.1757 2.36368C52.6357 2.25568 52.0657 2.20168 51.4657 2.20168C50.4217 2.20168 49.5937 2.39968 48.9817 2.79568C48.3697 3.19168 47.9317 3.76168 47.6677 4.50568C47.4037 5.24968 47.2717 6.13768 47.2717 7.16968C47.2717 8.59768 47.6077 9.70168 48.2797 10.4817C48.9637 11.2497 50.0377 11.6337 51.5017 11.6337C52.0417 11.6337 52.5877 11.5917 53.1397 11.5077C53.7037 11.4237 54.2257 11.2917 54.7057 11.1117V12.4257C54.2617 12.5577 53.7817 12.6657 53.2657 12.7497C52.7497 12.8337 52.1857 12.8817 51.5737 12.8937L51.3397 13.5777C51.9997 13.5777 52.4977 13.7157 52.8337 13.9917C53.1697 14.2797 53.3377 14.6817 53.3377 15.1977C53.3377 15.7857 53.1277 16.2357 52.7077 16.5477C52.2997 16.8717 51.6517 17.0337 50.7637 17.0337ZM61.4952 12.8937C59.6832 12.8937 58.3392 12.4197 57.4632 11.4717C56.5872 10.5117 56.1492 8.99368 56.1492 6.91768C56.1492 4.84168 56.5872 3.32968 57.4632 2.38168C58.3392 1.42168 59.6832 0.941683 61.4952 0.941683C63.3192 0.941683 64.6632 1.42168 65.5272 2.38168C66.4032 3.32968 66.8412 4.84168 66.8412 6.91768C66.8412 8.99368 66.4032 10.5117 65.5272 11.4717C64.6632 12.4197 63.3192 12.8937 61.4952 12.8937ZM61.4952 11.6337C62.3712 11.6337 63.0912 11.4837 63.6552 11.1837C64.2312 10.8837 64.6572 10.3917 64.9332 9.70768C65.2212 9.01168 65.3652 8.08168 65.3652 6.91768C65.3652 5.75368 65.2212 4.82968 64.9332 4.14568C64.6572 3.44968 64.2312 2.95168 63.6552 2.65168C63.0912 2.35168 62.3712 2.20168 61.4952 2.20168C60.6192 2.20168 59.8932 2.35168 59.3172 2.65168C58.7532 2.95168 58.3272 3.44968 58.0392 4.14568C57.7632 4.82968 57.6252 5.75368 57.6252 6.91768C57.6252 8.08168 57.7632 9.01168 58.0392 9.70768C58.3272 10.3917 58.7532 10.8837 59.3172 11.1837C59.8932 11.4837 60.6192 11.6337 61.4952 11.6337ZM72.0577 12.8937C70.6177 12.8937 69.4537 12.7137 68.5657 12.3537V11.0397C69.0697 11.2317 69.6037 11.3817 70.1677 11.4897C70.7437 11.5857 71.3317 11.6337 71.9317 11.6337C72.9637 11.6337 73.7377 11.4957 74.2537 11.2197C74.7697 10.9317 75.0277 10.4217 75.0277 9.68968C75.0277 9.23368 74.9197 8.87368 74.7037 8.60968C74.4997 8.33368 74.1577 8.10568 73.6777 7.92568C73.1977 7.73368 72.5557 7.54168 71.7517 7.34968C70.4797 7.03768 69.5857 6.63568 69.0697 6.14368C68.5537 5.63968 68.2957 4.96768 68.2957 4.12768C68.2957 3.14368 68.6497 2.36968 69.3577 1.80568C70.0657 1.22968 71.1457 0.941683 72.5977 0.941683C73.2697 0.941683 73.8937 0.989683 74.4697 1.08568C75.0457 1.18168 75.4897 1.28368 75.8017 1.39168V2.68768C75.3697 2.53168 74.9017 2.41168 74.3977 2.32768C73.8937 2.24368 73.3717 2.20168 72.8317 2.20168C71.8477 2.20168 71.0917 2.34568 70.5637 2.63368C70.0357 2.92168 69.7717 3.41968 69.7717 4.12768C69.7717 4.52368 69.8617 4.84768 70.0417 5.09968C70.2337 5.33968 70.5517 5.54968 70.9957 5.72968C71.4397 5.89768 72.0577 6.07768 72.8497 6.26968C73.7977 6.49768 74.5357 6.77368 75.0637 7.09768C75.5917 7.40968 75.9637 7.78168 76.1797 8.21368C76.3957 8.64568 76.5037 9.13768 76.5037 9.68968C76.5037 10.7097 76.1317 11.5017 75.3877 12.0657C74.6437 12.6177 73.5337 12.8937 72.0577 12.8937Z" fill="url(#paint0_linear_56_1815)"/>
<defs>
<linearGradient id="paint0_linear_56_1815" x1="38.7101" y1="-3.28632" x2="78.2101" y2="9.64076" gradientUnits="userSpaceOnUse">
<stop stop-color="#DEFF75"/>
<stop offset="1" stop-color="#8EBB00"/>
</linearGradient>
</defs>
</svg>
