<svg width="95" height="208" viewBox="0 0 95 208" fill="none" xmlns="http://www.w3.org/2000/svg">
<path d="M10.375 204.418C9.54657 204.418 8.875 205.09 8.875 205.918C8.875 206.747 9.54657 207.418 10.375 207.418V204.418ZM92.8771 205.918V207.418H94.3771V205.918H92.8771ZM92.8771 9.28851H94.3771V7.78851H92.8771V9.28851ZM0.749756 9.28851L15.7498 17.9488V0.628259L0.749756 9.28851ZM9.38669 10.7885H15.1447V7.78851H9.38669V10.7885ZM20.9026 10.7885H26.6606V7.78851H20.9026V10.7885ZM32.4185 10.7885H38.1765V7.78851H32.4185V10.7885ZM43.9344 10.7885H49.6924V7.78851H43.9344V10.7885ZM55.4504 10.7885H61.2083V7.78851H55.4504V10.7885ZM66.9663 10.7885H72.7242V7.78851H66.9663V10.7885ZM78.4822 10.7885H84.2402V7.78851H78.4822V10.7885ZM89.9981 10.7885H92.8771V7.78851H89.9981V10.7885ZM91.3771 9.28851V12.3609H94.3771V9.28851H91.3771ZM91.3771 18.5055V24.6502H94.3771V18.5055H91.3771ZM91.3771 30.7949V36.9396H94.3771V30.7949H91.3771ZM91.3771 43.0843V49.229H94.3771V43.0843H91.3771ZM91.3771 55.3737V61.5183H94.3771V55.3737H91.3771ZM91.3771 67.663V73.8077H94.3771V67.663H91.3771ZM91.3771 79.9524V86.0971H94.3771V79.9524H91.3771ZM91.3771 92.2418V98.3865H94.3771V92.2418H91.3771ZM91.3771 104.531V110.676H94.3771V104.531H91.3771ZM91.3771 116.821V122.965H94.3771V116.821H91.3771ZM91.3771 129.11V135.255H94.3771V129.11H91.3771ZM91.3771 141.399V147.544H94.3771V141.399H91.3771ZM91.3771 153.689V159.833H94.3771V153.689H91.3771ZM91.3771 165.978V172.123H94.3771V165.978H91.3771ZM91.3771 178.267V184.412H94.3771V178.267H91.3771ZM91.3771 190.557V196.701H94.3771V190.557H91.3771ZM91.3771 202.846V205.918H94.3771V202.846H91.3771ZM92.8771 204.418H89.9306V207.418H92.8771V204.418ZM84.0376 204.418H78.1446V207.418H84.0376V204.418ZM72.2516 204.418H66.3586V207.418H72.2516V204.418ZM60.4656 204.418H54.5726V207.418H60.4656V204.418ZM48.6795 204.418H42.7865V207.418H48.6795V204.418ZM36.8935 204.418H31.0005V207.418H36.8935V204.418ZM25.1075 204.418H19.2145V207.418H25.1075V204.418ZM13.3215 204.418H10.375V207.418H13.3215V204.418Z" fill="white"/>
</svg>
