<svg width="397" height="92" viewBox="0 0 397 92" fill="none" xmlns="http://www.w3.org/2000/svg">
<g filter="url(#filter0_d_110_3298)">
<path d="M8.62149 68.1263L8.38421 69.7477L8.38974 69.7485L8.62149 68.1263ZM1.72148 66.5263H0.0828099V67.6811L1.17034 68.0695L1.72148 66.5263ZM1.72148 59.3263L2.26687 57.7811L0.0828099 57.0102V59.3263H1.72148ZM8.82148 61.1263L8.55918 62.7439L8.56591 62.7449L8.82148 61.1263ZM25.3215 60.4263L26.0324 61.9028L26.0542 61.8922L26.0758 61.8811L25.3215 60.4263ZM26.5215 51.2263L25.3628 52.385L25.3827 52.405L25.4034 52.4243L26.5215 51.2263ZM22.1215 48.7263L21.5403 50.2585L21.5488 50.2617L21.5574 50.2648L22.1215 48.7263ZM14.6215 46.1263L14.092 47.6771L14.1027 47.6807L14.1135 47.6843L14.6215 46.1263ZM7.32149 43.2263L6.62598 44.7101H6.62598L7.32149 43.2263ZM2.32148 39.2263L0.97418 40.1591L0.982798 40.1715L0.991644 40.1838L2.32148 39.2263ZM4.92148 22.7263L5.90469 24.0373L5.91412 24.0302L5.92345 24.023L4.92148 22.7263ZM26.4215 19.9263L26.1446 21.5414L26.1671 21.5453L26.1897 21.5485L26.4215 19.9263ZM32.5215 21.2263H34.1602V20.016L33.0034 19.6601L32.5215 21.2263ZM32.5215 28.4263L32.0033 29.9809L34.1602 30.6999V28.4263H32.5215ZM11.4215 27.6263L12.087 29.1238L12.0993 29.1183L12.1115 29.1126L11.4215 27.6263ZM9.92148 35.9263L8.67731 36.9928L8.71827 37.0405L8.76277 37.085L9.92148 35.9263ZM13.8215 38.2263L13.2332 39.7558L13.268 39.7691L13.3033 39.7809L13.8215 38.2263ZM20.7215 40.5263L20.2033 42.0809L20.2204 42.0866L20.2376 42.0919L20.7215 40.5263ZM29.6215 44.0263L28.8548 45.4746L29.6215 44.0263ZM34.6215 48.4263L36.0171 47.5675V47.5675L34.6215 48.4263ZM31.3215 65.5263L32.2175 66.8983L32.2272 66.892L32.2369 66.8855L31.3215 65.5263ZM17.4215 67.0876C14.4259 67.0876 11.5704 66.8923 8.85323 66.5041L8.38974 69.7485C11.2726 70.1604 14.2837 70.365 17.4215 70.365V67.0876ZM8.85876 66.5049C6.19403 66.115 4.00656 65.6024 2.27263 64.9831L1.17034 68.0695C3.16974 68.7836 5.58227 69.3377 8.38421 69.7477L8.85876 66.5049ZM3.36016 66.5263V59.3263H0.0828099V66.5263H3.36016ZM1.1761 60.8716C3.53835 61.7053 5.99999 62.3289 8.55918 62.7439L9.08379 59.5088C6.70965 59.1238 4.43796 58.5473 2.26687 57.7811L1.1761 60.8716ZM8.56591 62.7449C11.1804 63.1578 13.7659 63.365 16.3215 63.365V60.0876C13.9437 60.0876 11.5292 59.8949 9.07706 59.5077L8.56591 62.7449ZM16.3215 63.365C20.5544 63.365 23.8764 62.9408 26.0324 61.9028L24.6106 58.9499C23.1666 59.6451 20.4886 60.0876 16.3215 60.0876V63.365ZM26.0758 61.8811C28.5471 60.5996 29.6602 58.246 29.6602 55.3263H26.3828C26.3828 57.34 25.6958 58.3863 24.5672 58.9716L26.0758 61.8811ZM29.6602 55.3263C29.6602 53.2227 29.0677 51.3612 27.6396 50.0284L25.4034 52.4243C25.9753 52.9581 26.3828 53.83 26.3828 55.3263H29.6602ZM27.6802 50.0676C26.5064 48.8938 24.7877 47.9586 22.6856 47.1878L21.5574 50.2648C23.4553 50.9607 24.6699 51.6922 25.3628 52.385L27.6802 50.0676ZM22.7026 47.1942C20.7357 46.4481 18.2088 45.5725 15.1295 44.5684L14.1135 47.6843C17.1675 48.6801 19.6406 49.5379 21.5403 50.2585L22.7026 47.1942ZM15.151 44.5756C12.4621 43.6574 10.0858 42.7123 8.01699 41.7426L6.62598 44.7101C8.82381 45.7403 11.3142 46.7286 14.092 47.6771L15.151 44.5756ZM8.01699 41.7426C6.09883 40.8434 4.66548 39.6774 3.65133 38.2688L0.991644 40.1838C2.37749 42.1086 4.27747 43.6092 6.62598 44.7101L8.01699 41.7426ZM3.66879 38.2936C2.71578 36.917 2.16016 34.9769 2.16016 32.3263H-1.11719C-1.11719 35.4091 -0.472807 38.069 0.97418 40.1591L3.66879 38.2936ZM2.16016 32.3263C2.16016 28.5565 3.44795 25.8798 5.90469 24.0373L3.93828 21.4154C0.528355 23.9728 -1.11719 27.6961 -1.11719 32.3263H2.16016ZM5.92345 24.023C8.42209 22.0922 12.7044 20.965 19.1215 20.965V17.6876C12.4719 17.6876 7.28755 18.8271 3.91952 21.4297L5.92345 24.023ZM19.1215 20.965C21.5685 20.965 23.9089 21.1582 26.1446 21.5414L26.6984 18.3112C24.2674 17.8945 21.7412 17.6876 19.1215 17.6876V20.965ZM26.1897 21.5485C28.462 21.8731 30.4081 22.2905 32.0396 22.7925L33.0034 19.6601C31.1682 19.0954 29.0477 18.6462 26.6532 18.3041L26.1897 21.5485ZM30.8828 21.2263V28.4263H34.1602V21.2263H30.8828ZM33.0397 26.8717C28.6964 25.424 24.4877 24.6876 20.4215 24.6876V27.965C24.0886 27.965 27.9466 28.6287 32.0033 29.9809L33.0397 26.8717ZM20.4215 24.6876C16.2426 24.6876 12.939 25.1151 10.7314 26.14L12.1115 29.1126C13.6373 28.4042 16.3337 27.965 20.4215 27.965V24.6876ZM10.756 26.1289C9.57843 26.6522 8.62521 27.4531 7.98327 28.5468C7.35029 29.6252 7.08281 30.8802 7.08281 32.2263H10.3602C10.3602 31.3058 10.5427 30.6607 10.8097 30.2058C11.0678 29.7662 11.4645 29.4004 12.087 29.1238L10.756 26.1289ZM7.08281 32.2263C7.08281 34.0508 7.56446 35.6944 8.67731 36.9928L11.1657 34.8599C10.6785 34.2915 10.3602 33.4685 10.3602 32.2263H7.08281ZM8.76277 37.085C9.85313 38.1754 11.3857 39.0452 13.2332 39.7558L14.4097 36.6969C12.7906 36.0741 11.7232 35.4106 11.0802 34.7676L8.76277 37.085ZM13.3033 39.7809C15.1033 40.3809 17.4033 41.1476 20.2033 42.0809L21.2397 38.9717C18.4397 38.0384 16.1397 37.2717 14.3397 36.6717L13.3033 39.7809ZM20.2376 42.0919C23.8495 43.2083 26.7111 44.3397 28.8548 45.4746L30.3882 42.5781C27.9986 41.313 24.9268 40.111 21.2054 38.9607L20.2376 42.0919ZM28.8548 45.4746C30.9293 46.5729 32.3476 47.8579 33.2259 49.2851L36.0171 47.5675C34.7621 45.5281 32.847 43.8798 30.3882 42.5781L28.8548 45.4746ZM33.2259 49.2851C34.0846 50.6806 34.5828 52.62 34.5828 55.2263H37.8602C37.8602 52.2326 37.2917 49.6387 36.0171 47.5675L33.2259 49.2851ZM34.5828 55.2263C34.5828 59.4639 33.1321 62.3312 30.4061 64.1671L32.2369 66.8855C36.0442 64.3214 37.8602 60.3221 37.8602 55.2263H34.5828ZM30.4255 64.1543C27.5327 66.0435 23.2619 67.0876 17.4215 67.0876V70.365C23.581 70.365 28.577 69.2758 32.2175 66.8983L30.4255 64.1543ZM50.3598 62.4263L49.1265 63.5054L49.1355 63.5156L49.1446 63.5257L50.3598 62.4263ZM50.4598 25.7263L51.6835 26.8162L50.4598 25.7263ZM86.4598 25.7263L85.2361 26.8162L86.4598 25.7263ZM86.5598 62.4263L87.7846 63.515L87.793 63.5054L86.5598 62.4263ZM80.4598 57.5263L81.7186 58.5754L81.7247 58.5681L81.7307 58.5608L80.4598 57.5263ZM80.3598 30.6263L79.0889 31.6608L79.102 31.6769L79.1156 31.6927L80.3598 30.6263ZM56.4598 30.6263L55.2033 29.5744L55.2009 29.5773L56.4598 30.6263ZM56.4598 57.5263L55.1889 58.5608L55.1948 58.5681L55.2009 58.5754L56.4598 57.5263ZM68.4598 67.0876C60.4402 67.0876 54.9441 65.0507 51.5749 61.3269L49.1446 63.5257C53.3755 68.2019 59.946 70.365 68.4598 70.365V67.0876ZM51.593 61.3472C48.2109 57.482 46.3984 51.7913 46.3984 44.0263H43.1211C43.1211 52.2613 45.0419 58.8373 49.1265 63.5054L51.593 61.3472ZM46.3984 44.0263C46.3984 36.3386 48.2391 30.6836 51.6835 26.8162L49.2361 24.6365C45.0805 29.3024 43.1211 35.8474 43.1211 44.0263H46.3984ZM51.6835 26.8162C55.0566 23.0287 60.5189 20.965 68.4598 20.965V17.6876C60.0006 17.6876 53.4629 19.8905 49.2361 24.6365L51.6835 26.8162ZM68.4598 20.965C76.4006 20.965 81.8629 23.0287 85.2361 26.8162L87.6835 24.6365C83.4566 19.8905 76.9189 17.6876 68.4598 17.6876V20.965ZM85.2361 26.8162C88.6805 30.6836 90.5211 36.3386 90.5211 44.0263H93.7984C93.7984 35.8474 91.8391 29.3024 87.6835 24.6365L85.2361 26.8162ZM90.5211 44.0263C90.5211 51.7913 88.7086 57.482 85.3265 61.3472L87.793 63.5054C91.8776 58.8373 93.7984 52.2613 93.7984 44.0263H90.5211ZM85.335 61.3376C82.0377 65.0472 76.5537 67.0876 68.4598 67.0876V70.365C77.0325 70.365 83.6152 68.2055 87.7845 63.515L85.335 61.3376ZM68.4598 63.365C74.3422 63.365 78.9346 61.9162 81.7186 58.5754L79.2009 56.4773C77.3183 58.7364 73.9107 60.0876 68.4598 60.0876V63.365ZM81.7307 58.5608C84.4145 55.2635 85.5984 50.3077 85.5984 44.0263H82.3211C82.3211 50.0116 81.1717 54.0558 79.1889 56.4919L81.7307 58.5608ZM85.5984 44.0263C85.5984 37.742 84.3803 32.799 81.6039 29.5599L79.1156 31.6927C81.1392 34.0537 82.3211 38.0439 82.3211 44.0263H85.5984ZM81.6307 29.5919C78.8533 26.1796 74.2943 24.6876 68.4598 24.6876V27.965C73.8252 27.965 77.1996 29.3397 79.0889 31.6608L81.6307 29.5919ZM68.4598 24.6876C62.6204 24.6876 58.0438 26.1815 55.2033 29.5744L57.7162 31.6782C59.6757 29.3378 63.0991 27.965 68.4598 27.965V24.6876ZM55.2009 29.5773C52.503 32.8148 51.3211 37.7499 51.3211 44.0263H54.5984C54.5984 38.036 55.7499 34.0379 57.7186 31.6754L55.2009 29.5773ZM51.3211 44.0263C51.3211 50.3077 52.505 55.2635 55.1889 58.5608L57.7307 56.4919C55.7479 54.0558 54.5984 50.0116 54.5984 44.0263H51.3211ZM55.2009 58.5754C57.9849 61.9162 62.5773 63.365 68.4598 63.365V60.0876C63.0089 60.0876 59.6013 58.7364 57.7186 56.4773L55.2009 58.5754ZM106.882 66.2263L105.745 67.4067L105.767 67.4281L105.79 67.4487L106.882 66.2263ZM104.182 0.326317V-1.31236H102.543V0.326317H104.182ZM112.382 0.326317H114.02V-1.31236H112.382V0.326317ZM113.382 60.7263L112.169 61.8286L113.382 60.7263ZM120.982 61.2263H122.62V59.0809L120.55 59.6454L120.982 61.2263ZM120.982 67.7263L121.557 69.2607L122.62 68.8619V67.7263H120.982ZM114.482 67.0876C111.569 67.0876 109.463 66.3344 107.973 65.004L105.79 67.4487C108.034 69.4516 110.995 70.365 114.482 70.365V67.0876ZM108.018 65.0459C106.691 63.7681 105.82 61.4161 105.82 57.5263H102.543C102.543 61.7698 103.472 65.2179 105.745 67.4067L108.018 65.0459ZM105.82 57.5263V0.326317H102.543V57.5263H105.82ZM104.182 1.96499H112.382V-1.31236H104.182V1.96499ZM110.743 0.326317V56.6263H114.02V0.326317H110.743ZM110.743 56.6263C110.743 58.6802 111.059 60.6071 112.169 61.8286L114.594 59.624C114.371 59.3788 114.02 58.5725 114.02 56.6263H110.743ZM112.169 61.8286C113.257 63.0255 114.816 63.465 116.482 63.465V60.1876C115.348 60.1876 114.839 59.8938 114.594 59.624L112.169 61.8286ZM116.482 63.465C118.159 63.465 119.804 63.2459 121.413 62.8073L120.55 59.6454C119.226 60.0067 117.871 60.1876 116.482 60.1876V63.465ZM119.343 61.2263V67.7263H122.62V61.2263H119.343ZM120.406 66.192C119.452 66.5496 118.511 66.7838 117.578 66.9003L117.985 70.1523C119.186 70.0022 120.377 69.703 121.557 69.2607L120.406 66.192ZM117.578 66.9003C116.583 67.0248 115.551 67.0876 114.482 67.0876V70.365C115.679 70.365 116.847 70.2945 117.985 70.1523L117.578 66.9003ZM131.712 64.0263L130.503 65.1324L130.509 65.1394L130.516 65.1462L131.712 64.0263ZM127.412 20.3263V18.6876H125.773V20.3263H127.412ZM135.612 20.3263H137.251V18.6876H135.612V20.3263ZM138.512 59.3263L137.374 60.5052L137.384 60.5148L137.394 60.5243L138.512 59.3263ZM162.712 56.1263L163.871 57.285L164.351 56.8051V56.1263H162.712ZM162.712 20.3263V18.6876H161.073V20.3263H162.712ZM170.912 20.3263H172.551V18.6876H170.912V20.3263ZM170.912 67.7263V69.365H172.551V67.7263H170.912ZM163.512 67.7263L161.88 67.8774L162.018 69.365H163.512V67.7263ZM163.012 62.3263L164.644 62.1752L164.359 59.0946L161.97 61.0614L163.012 62.3263ZM154.912 66.9263L154.326 65.396H154.326L154.912 66.9263ZM144.612 67.0876C139.247 67.0876 135.441 65.6121 132.908 62.9064L130.516 65.1462C133.85 68.7072 138.644 70.365 144.612 70.365V67.0876ZM132.921 62.9202C130.427 60.1938 129.051 56.0856 129.051 50.3263H125.773C125.773 56.567 127.264 61.5921 130.503 65.1324L132.921 62.9202ZM129.051 50.3263V20.3263H125.773V50.3263H129.051ZM127.412 21.965H135.612V18.6876H127.412V21.965ZM133.973 20.3263V50.6263H137.251V20.3263H133.973ZM133.973 50.6263C133.973 54.7974 134.998 58.2108 137.374 60.5052L139.65 58.1475C138.16 56.7085 137.251 54.3219 137.251 50.6263H133.973ZM137.394 60.5243C139.821 62.7892 143.371 63.765 147.712 63.765V60.4876C143.787 60.4876 141.203 59.5967 139.63 58.1284L137.394 60.5243ZM147.712 63.765C150.849 63.765 153.828 63.1935 156.634 62.0424L155.39 59.0103C152.996 59.9924 150.442 60.4876 147.712 60.4876V63.765ZM156.634 62.0424C159.422 60.8987 161.841 59.3149 163.871 57.285L161.553 54.9676C159.85 56.6711 157.802 58.0206 155.39 59.0103L156.634 62.0424ZM164.351 56.1263V20.3263H161.073V56.1263H164.351ZM162.712 21.965H170.912V18.6876H162.712V21.965ZM169.273 20.3263V67.7263H172.551V20.3263H169.273ZM170.912 66.0876H163.512V69.365H170.912V66.0876ZM165.144 67.5752L164.644 62.1752L161.38 62.4774L161.88 67.8774L165.144 67.5752ZM161.97 61.0614C159.858 62.8008 157.317 64.2504 154.326 65.396L155.498 68.4566C158.774 67.2022 161.633 65.5852 164.054 63.5913L161.97 61.0614ZM154.326 65.396C151.4 66.5168 148.168 67.0876 144.612 67.0876V70.365C148.523 70.365 152.158 69.7359 155.498 68.4566L154.326 65.396ZM200.843 91.4263L201.065 89.8027L201.032 89.7982L200.999 89.795L200.843 91.4263ZM197.643 90.9263H196.005V92.1779L197.212 92.5072L197.643 90.9263ZM197.643 85.9263L198.079 84.3466L196.005 83.7744V85.9263H197.643ZM210.743 85.6263L210.011 84.1606L209.997 84.1676L209.983 84.1747L210.743 85.6263ZM210.843 77.6263L211.489 76.1201L211.458 76.1069L211.427 76.095L210.843 77.6263ZM200.743 76.8263L199.18 76.3365L198.513 78.465H200.743V76.8263ZM203.343 68.5263L204.907 69.0162L205.51 67.0903L203.502 66.8953L203.343 68.5263ZM187.943 61.2263L186.66 62.245L186.665 62.2512L186.67 62.2574L187.943 61.2263ZM189.743 25.4263L190.838 26.6461L189.743 25.4263ZM215.843 20.0263L215.482 21.6247L215.507 21.6303L215.532 21.6351L215.843 20.0263ZM221.843 22.0263H223.482V20.9978L222.556 20.5506L221.843 22.0263ZM221.843 28.5263L221.132 30.0028L223.482 31.134V28.5263H221.843ZM195.943 30.1263L197.008 31.3723L197.015 31.366L197.022 31.3595L195.943 30.1263ZM195.343 57.8263L194.158 58.9578L194.165 58.9646L194.171 58.9713L195.343 57.8263ZM221.943 59.5263H223.582V56.9959L221.273 58.031L221.943 59.5263ZM221.943 66.1263L222.543 67.6515L223.582 67.2431V66.1263H221.943ZM215.943 67.8263L215.641 66.2157L215.612 66.2213L215.582 66.2279L215.943 67.8263ZM209.143 68.7263L209.055 67.09L207.951 67.1497L207.593 68.1959L209.143 68.7263ZM207.843 72.5263L206.293 71.9959L205.551 74.165H207.843V72.5263ZM216.143 74.8263L217.21 73.5821L217.197 73.571L217.183 73.5601L216.143 74.8263ZM215.443 89.0263L214.466 87.7109L214.445 87.7266L214.424 87.7431L215.443 89.0263ZM204.643 90.0876C203.673 90.0876 202.484 89.9962 201.065 89.8027L200.622 93.05C202.136 93.2565 203.48 93.365 204.643 93.365V90.0876ZM200.999 89.795C199.628 89.6645 198.671 89.5082 198.075 89.3454L197.212 92.5072C198.082 92.7445 199.259 92.9215 200.688 93.0576L200.999 89.795ZM199.282 90.9263V85.9263H196.005V90.9263H199.282ZM197.208 87.506C199.3 88.0832 201.548 88.365 203.943 88.365V85.0876C201.805 85.0876 199.853 84.8361 198.079 84.3466L197.208 87.506ZM203.943 88.365C207.13 88.365 209.735 88.0046 211.504 87.0779L209.983 84.1747C208.952 84.7147 207.024 85.0876 203.943 85.0876V88.365ZM211.476 87.092C213.652 86.0042 214.582 83.9208 214.582 81.4263H211.305C211.305 83.0652 210.768 83.7818 210.011 84.1606L211.476 87.092ZM214.582 81.4263C214.582 80.2721 214.374 79.1776 213.853 78.2337C213.317 77.2639 212.505 76.5556 211.489 76.1201L210.198 79.1325C210.582 79.297 210.82 79.522 210.984 79.8189C211.162 80.1417 211.305 80.6472 211.305 81.4263H214.582ZM211.427 76.095C209.74 75.4523 207.361 75.1876 204.443 75.1876V78.465C207.259 78.465 209.147 78.7337 210.26 79.1576L211.427 76.095ZM204.443 75.1876H200.743V78.465H204.443V75.1876ZM202.307 77.3162L204.907 69.0162L201.78 68.0365L199.18 76.3365L202.307 77.3162ZM203.502 66.8953C196.945 66.2587 192.269 63.966 189.217 60.1953L186.67 62.2574C190.417 66.8867 196.008 69.4606 203.185 70.1573L203.502 66.8953ZM189.227 60.2076C186.193 56.3854 184.582 51.0537 184.582 44.0263H181.305C181.305 51.5323 183.027 57.6673 186.66 62.245L189.227 60.2076ZM184.582 44.0263C184.582 35.9799 186.765 30.2999 190.838 26.6461L188.649 24.2065C183.656 28.6861 181.305 35.4061 181.305 44.0263H184.582ZM190.838 26.6461C194.998 22.9137 200.672 20.965 208.043 20.965V17.6876C200.081 17.6876 193.555 19.8056 188.649 24.2065L190.838 26.6461ZM208.043 20.965C211.107 20.965 213.576 21.1942 215.482 21.6247L216.204 18.4279C213.977 17.9251 211.246 17.6876 208.043 17.6876V20.965ZM215.532 21.6351C217.457 22.0077 219.322 22.629 221.131 23.502L222.556 20.5506C220.498 19.557 218.363 18.8449 216.155 18.4175L215.532 21.6351ZM220.205 22.0263V28.5263H223.482V22.0263H220.205ZM222.554 27.0499C218.701 25.1947 214.352 24.2876 209.543 24.2876V27.565C213.934 27.565 217.786 28.3913 221.132 30.0028L222.554 27.0499ZM209.543 24.2876C203.431 24.2876 198.46 25.7471 194.864 28.8931L197.022 31.3595C199.827 28.9056 203.923 27.565 209.543 27.565V24.2876ZM194.879 28.8803C191.153 32.0634 189.505 37.2783 189.505 44.0263H192.782C192.782 37.7077 194.334 33.6559 197.008 31.3723L194.879 28.8803ZM189.505 44.0263C189.505 50.4916 190.943 55.5896 194.158 58.9578L196.529 56.6949C194.144 54.1964 192.782 50.0944 192.782 44.0263H189.505ZM194.171 58.9713C197.423 62.301 202.596 63.765 209.243 63.765V60.4876C202.957 60.4876 198.863 59.0849 196.516 56.6813L194.171 58.9713ZM209.243 63.765C214.054 63.765 218.519 62.8573 222.614 61.0216L221.273 58.031C217.635 59.662 213.632 60.4876 209.243 60.4876V63.765ZM220.305 59.5263V66.1263H223.582V59.5263H220.305ZM221.344 64.6011C219.581 65.2937 217.681 65.8332 215.641 66.2157L216.245 69.4369C218.472 69.0194 220.572 68.4256 222.543 67.6515L221.344 64.6011ZM215.582 66.2279C213.619 66.6713 211.445 66.9609 209.055 67.09L209.232 70.3626C211.776 70.2251 214.135 69.9146 216.304 69.4248L215.582 66.2279ZM207.593 68.1959L206.293 71.9959L209.394 73.0567L210.694 69.2567L207.593 68.1959ZM207.843 74.165C211.319 74.165 213.648 74.8971 215.103 76.0926L217.183 73.5601C214.906 71.6889 211.701 70.8876 207.843 70.8876V74.165ZM215.077 76.0705C216.519 77.3062 217.305 79.0501 217.305 81.5263H220.582C220.582 78.2692 219.502 75.5465 217.21 73.5821L215.077 76.0705ZM217.305 81.5263C217.305 84.3483 216.327 86.3282 214.466 87.7109L216.421 90.3418C219.226 88.2578 220.582 85.2376 220.582 81.5263H217.305ZM214.424 87.7431C212.59 89.1996 209.443 90.0876 204.643 90.0876V93.365C209.71 93.365 213.763 92.453 216.462 90.3096L214.424 87.7431ZM258.067 12.1263L257.458 13.6478L257.485 13.6584L257.512 13.6681L258.067 12.1263ZM253.267 10.2263L252.613 11.7291L252.641 11.7412L252.67 11.7523L253.267 10.2263ZM244.267 10.0263L244.785 11.5809L244.818 11.57L244.85 11.5576L244.267 10.0263ZM240.467 12.7263H238.828V17.1844L241.715 13.7876L240.467 12.7263ZM240.467 6.42632L239.223 5.35988L238.828 5.82013V6.42632H240.467ZM244.067 4.22631L243.549 2.67173L244.067 4.22631ZM253.867 4.42632L253.213 5.9291L253.252 5.94588L253.291 5.96066L253.867 4.42632ZM258.467 6.32632L257.789 7.81811L257.829 7.8363L257.87 7.85232L258.467 6.32632ZM270.867 3.62632H272.505V-1.44143L269.538 2.66689L270.867 3.62632ZM270.867 10.0263L272.166 11.0254L272.505 10.5837V10.0263H270.867ZM267.767 12.2263L268.375 13.7478L268.394 13.7404L268.412 13.7325L267.767 12.2263ZM237.567 62.4263L236.334 63.5054L236.343 63.5156L236.352 63.5257L237.567 62.4263ZM237.667 25.7263L238.891 26.8162L237.667 25.7263ZM273.667 25.7263L272.443 26.8162L273.667 25.7263ZM273.767 62.4263L274.992 63.515L275 63.5054L273.767 62.4263ZM267.667 57.5263L268.926 58.5754L268.932 58.5681L268.938 58.5608L267.667 57.5263ZM267.567 30.6263L266.296 31.6608L266.309 31.6769L266.323 31.6927L267.567 30.6263ZM243.667 30.6263L242.41 29.5744L242.408 29.5773L243.667 30.6263ZM243.667 57.5263L242.396 58.5608L242.402 58.5681L242.408 58.5754L243.667 57.5263ZM263.167 11.3876C261.627 11.3876 260.114 11.1218 258.622 10.5845L257.512 13.6681C259.352 14.3308 261.24 14.665 263.167 14.665V11.3876ZM258.675 10.6048C257.005 9.93679 255.401 9.30193 253.864 8.70031L252.67 11.7523C254.199 12.3507 255.795 12.9825 257.458 13.6478L258.675 10.6048ZM253.92 8.72353C252.209 7.97973 250.488 7.58764 248.767 7.58764V10.865C249.979 10.865 251.257 11.1396 252.613 11.7291L253.92 8.72353ZM248.767 7.58764C246.981 7.58764 245.282 7.88598 243.683 8.495L244.85 11.5576C246.051 11.1 247.353 10.865 248.767 10.865V7.58764ZM243.749 8.47173C242.016 9.04934 240.509 10.1464 239.218 11.665L241.715 13.7876C242.691 12.6396 243.718 11.9366 244.785 11.5809L243.749 8.47173ZM242.105 12.7263V6.42632H238.828V12.7263H242.105ZM241.711 7.49275C242.259 6.85376 243.166 6.25386 244.585 5.7809L243.549 2.67173C241.768 3.26543 240.275 4.1322 239.223 5.35988L241.711 7.49275ZM244.585 5.7809C246.035 5.29773 247.426 5.06499 248.767 5.06499V1.78764C247.041 1.78764 245.299 2.08824 243.549 2.67173L244.585 5.7809ZM248.767 5.06499C250.435 5.06499 251.909 5.36197 253.213 5.9291L254.52 2.92354C252.758 2.15733 250.832 1.78764 248.767 1.78764V5.06499ZM253.291 5.96066C254.859 6.54842 256.358 7.16768 257.789 7.81811L259.145 4.83452C257.643 4.15163 256.075 3.50422 254.442 2.89198L253.291 5.96066ZM257.87 7.85232C259.588 8.52457 261.357 8.86499 263.167 8.86499V5.58764C261.777 5.58764 260.413 5.32806 259.064 4.80031L257.87 7.85232ZM263.167 8.86499C267.003 8.86499 270.105 7.48013 272.195 4.58574L269.538 2.66689C268.162 4.5725 266.13 5.58764 263.167 5.58764V8.86499ZM269.228 3.62632V10.0263H272.505V3.62632H269.228ZM269.568 9.0272C269.126 9.60147 268.36 10.1893 267.121 10.7201L268.412 13.7325C269.974 13.0633 271.274 12.1845 272.166 11.0254L269.568 9.0272ZM267.158 10.7048C266.054 11.1465 264.734 11.3876 263.167 11.3876V14.665C265.067 14.665 266.813 14.3728 268.375 13.7478L267.158 10.7048ZM255.667 67.0876C247.647 67.0876 242.151 65.0507 238.782 61.3269L236.352 63.5257C240.582 68.2019 247.153 70.365 255.667 70.365V67.0876ZM238.8 61.3472C235.418 57.482 233.605 51.7913 233.605 44.0263H230.328C230.328 52.2613 232.249 58.8373 236.334 63.5054L238.8 61.3472ZM233.605 44.0263C233.605 36.3386 235.446 30.6836 238.891 26.8162L236.443 24.6365C232.287 29.3024 230.328 35.8474 230.328 44.0263H233.605ZM238.891 26.8162C242.264 23.0287 247.726 20.965 255.667 20.965V17.6876C247.208 17.6876 240.67 19.8905 236.443 24.6365L238.891 26.8162ZM255.667 20.965C263.608 20.965 269.07 23.0287 272.443 26.8162L274.891 24.6365C270.664 19.8905 264.126 17.6876 255.667 17.6876V20.965ZM272.443 26.8162C275.888 30.6836 277.728 36.3386 277.728 44.0263H281.005C281.005 35.8474 279.046 29.3024 274.891 24.6365L272.443 26.8162ZM277.728 44.0263C277.728 51.7913 275.916 57.482 272.534 61.3472L275 63.5054C279.085 58.8373 281.005 52.2613 281.005 44.0263H277.728ZM272.542 61.3376C269.245 65.0472 263.761 67.0876 255.667 67.0876V70.365C264.24 70.365 270.822 68.2055 274.992 63.515L272.542 61.3376ZM255.667 63.365C261.549 63.365 266.142 61.9162 268.926 58.5754L266.408 56.4773C264.525 58.7364 261.118 60.0876 255.667 60.0876V63.365ZM268.938 58.5608C271.622 55.2635 272.805 50.3077 272.805 44.0263H269.528C269.528 50.0116 268.379 54.0558 266.396 56.4919L268.938 58.5608ZM272.805 44.0263C272.805 37.742 271.587 32.799 268.811 29.5599L266.323 31.6927C268.346 34.0537 269.528 38.0439 269.528 44.0263H272.805ZM268.838 29.5919C266.06 26.1796 261.501 24.6876 255.667 24.6876V27.965C261.032 27.965 264.407 29.3397 266.296 31.6608L268.838 29.5919ZM255.667 24.6876C249.827 24.6876 245.251 26.1815 242.41 29.5744L244.923 31.6782C246.883 29.3378 250.306 27.965 255.667 27.965V24.6876ZM242.408 29.5773C239.71 32.8148 238.528 37.7499 238.528 44.0263H241.805C241.805 38.036 242.957 34.0379 244.926 31.6754L242.408 29.5773ZM238.528 44.0263C238.528 50.3077 239.712 55.2635 242.396 58.5608L244.938 56.4919C242.955 54.0558 241.805 50.0116 241.805 44.0263H238.528ZM242.408 58.5754C245.192 61.9162 249.784 63.365 255.667 63.365V60.0876C250.216 60.0876 246.808 58.7364 244.926 56.4773L242.408 58.5754ZM295.689 62.6263L294.549 63.8036L295.689 62.6263ZM294.789 25.9263L293.53 24.8773L293.528 24.8792L294.789 25.9263ZM323.589 21.9263L322.769 23.3452L322.787 23.3559L322.806 23.3661L323.589 21.9263ZM330.389 28.9263L328.917 29.646L328.926 29.6659L328.936 29.6854L330.389 28.9263ZM332.689 47.8263V49.465H334.327V47.8263H332.689ZM297.589 47.8263V46.1876H295.824L295.954 47.9474L297.589 47.8263ZM299.889 56.3263L298.492 57.1826L298.501 57.1988L298.512 57.2147L299.889 56.3263ZM305.789 60.8263L305.235 62.3686L305.258 62.3771L305.282 62.3848L305.789 60.8263ZM329.689 59.6263H331.327V57.1838L329.067 58.11L329.689 59.6263ZM329.689 66.0263L330.322 67.5375L331.327 67.1161V66.0263H329.689ZM322.689 68.0263L322.399 66.4134L322.392 66.4148L322.689 68.0263ZM297.589 41.9263H295.95V43.565H297.589V41.9263ZM325.389 41.9263V43.565H327.027V41.9263H325.389ZM322.289 29.1263L321.093 30.2471L321.111 30.2663L321.13 30.285L322.289 29.1263ZM314.689 67.0876C306.457 67.0876 300.609 65.1097 296.829 61.4491L294.549 63.8036C299.168 68.2763 305.987 70.365 314.689 70.365V67.0876ZM296.829 61.4491C293.067 57.8071 291.027 52.0495 291.027 43.8263H287.75C287.75 52.5365 289.91 59.3122 294.549 63.8036L296.829 61.4491ZM291.027 43.8263C291.027 36.4751 292.767 30.9239 296.049 26.9735L293.528 24.8792C289.61 29.5954 287.75 35.9776 287.75 43.8263H291.027ZM296.048 26.9754C299.298 23.0745 304.517 20.965 312.089 20.965V17.6876C303.927 17.6876 297.612 19.9781 293.53 24.8773L296.048 26.9754ZM312.089 20.965C316.564 20.965 320.09 21.7973 322.769 23.3452L324.408 20.5074C321.087 18.5886 316.947 17.6876 312.089 17.6876V20.965ZM322.806 23.3661C325.588 24.878 327.606 26.9663 328.917 29.646L331.861 28.2066C330.238 24.8864 327.723 22.3079 324.371 20.4865L322.806 23.3661ZM328.936 29.6854C330.332 32.3559 331.05 35.4231 331.05 38.9263H334.327C334.327 34.9628 333.512 31.3634 331.841 28.1672L328.936 29.6854ZM331.05 38.9263V47.8263H334.327V38.9263H331.05ZM332.689 46.1876H297.589V49.465H332.689V46.1876ZM295.954 47.9474C296.232 51.6906 297.038 54.811 298.492 57.1826L301.286 55.47C300.206 53.7083 299.479 51.162 299.223 47.7053L295.954 47.9474ZM298.512 57.2147C300.064 59.6208 302.34 61.3294 305.235 62.3686L306.342 59.284C304.037 58.4565 302.38 57.1651 301.266 55.438L298.512 57.2147ZM305.282 62.3848C308.176 63.3253 311.866 63.765 316.289 63.765V60.4876C312.044 60.4876 308.735 60.0607 306.295 59.2679L305.282 62.3848ZM316.289 63.765C321.346 63.765 326.026 62.8983 330.31 61.1426L329.067 58.11C325.218 59.6876 320.965 60.4876 316.289 60.4876V63.765ZM328.05 59.6263V66.0263H331.327V59.6263H328.05ZM329.055 64.5151C327.117 65.328 324.901 65.9643 322.399 66.4134L322.978 69.6392C325.676 69.155 328.127 68.4579 330.322 67.5375L329.055 64.5151ZM322.392 66.4148C319.964 66.8619 317.398 67.0876 314.689 67.0876V70.365C317.58 70.365 320.346 70.1241 322.986 69.6379L322.392 66.4148ZM297.589 43.565H325.389V40.2876H297.589V43.565ZM327.027 41.9263V38.0263H323.75V41.9263H327.027ZM327.027 38.0263C327.027 33.8705 325.911 30.431 323.447 27.9676L321.13 30.285C322.8 31.9549 323.75 34.4488 323.75 38.0263H327.027ZM323.484 28.0056C321.032 25.3896 317.146 24.2876 312.289 24.2876V27.565C316.765 27.565 319.546 28.5964 321.093 30.2471L323.484 28.0056ZM312.289 24.2876C306.453 24.2876 301.931 25.6481 299.393 28.9225L301.984 30.9301C303.58 28.8712 306.791 27.565 312.289 27.565V24.2876ZM299.393 28.9225C297.008 32.0008 295.95 36.4268 295.95 41.9263H299.227C299.227 36.7592 300.236 33.1851 301.984 30.9301L299.393 28.9225ZM350.321 68.1263L350.083 69.7477L350.089 69.7485L350.321 68.1263ZM343.421 66.5263H341.782V67.6811L342.87 68.0695L343.421 66.5263ZM343.421 59.3263L343.966 57.7811L341.782 57.0102V59.3263H343.421ZM350.521 61.1263L350.258 62.7439L350.265 62.7449L350.521 61.1263ZM367.021 60.4263L367.732 61.9028L367.753 61.8922L367.775 61.8811L367.021 60.4263ZM368.221 51.2263L367.062 52.385L367.082 52.405L367.103 52.4243L368.221 51.2263ZM363.821 48.7263L363.24 50.2585L363.248 50.2617L363.257 50.2648L363.821 48.7263ZM356.321 46.1263L355.791 47.6771L355.802 47.6807L355.813 47.6843L356.321 46.1263ZM349.021 43.2263L348.325 44.7101L349.021 43.2263ZM344.021 39.2263L342.673 40.1591L342.682 40.1715L342.691 40.1838L344.021 39.2263ZM346.621 22.7263L347.604 24.0373L347.613 24.0302L347.623 24.023L346.621 22.7263ZM368.121 19.9263L367.844 21.5414L367.866 21.5453L367.889 21.5485L368.121 19.9263ZM374.221 21.2263H375.859V20.016L374.703 19.6601L374.221 21.2263ZM374.221 28.4263L373.703 29.9809L375.859 30.6999V28.4263H374.221ZM353.121 27.6263L353.786 29.1238L353.799 29.1183L353.811 29.1126L353.121 27.6263ZM351.621 35.9263L350.377 36.9928L350.417 37.0405L350.462 37.085L351.621 35.9263ZM355.521 38.2263L354.932 39.7558L354.967 39.7691L355.003 39.7809L355.521 38.2263ZM362.421 40.5263L361.902 42.0809L361.92 42.0866L361.937 42.0919L362.421 40.5263ZM371.321 44.0263L370.554 45.4746L371.321 44.0263ZM376.321 48.4263L377.716 47.5675V47.5675L376.321 48.4263ZM373.021 65.5263L373.917 66.8983L373.926 66.892L373.936 66.8855L373.021 65.5263ZM359.121 67.0876C356.125 67.0876 353.27 66.8923 350.552 66.5041L350.089 69.7485C352.972 70.1604 355.983 70.365 359.121 70.365V67.0876ZM350.558 66.5049C347.893 66.115 345.706 65.6024 343.972 64.9831L342.87 68.0695C344.869 68.7836 347.281 69.3377 350.083 69.7477L350.558 66.5049ZM345.059 66.5263V59.3263H341.782V66.5263H345.059ZM342.875 60.8716C345.238 61.7053 347.699 62.3289 350.258 62.7439L350.783 59.5088C348.409 59.1238 346.137 58.5473 343.966 57.7811L342.875 60.8716ZM350.265 62.7449C352.88 63.1578 355.465 63.365 358.021 63.365V60.0876C355.643 60.0876 353.228 59.8949 350.776 59.5077L350.265 62.7449ZM358.021 63.365C362.254 63.365 365.576 62.9408 367.732 61.9028L366.31 58.9499C364.866 59.6451 362.188 60.0876 358.021 60.0876V63.365ZM367.775 61.8811C370.246 60.5996 371.359 58.246 371.359 55.3263H368.082C368.082 57.34 367.395 58.3863 366.266 58.9716L367.775 61.8811ZM371.359 55.3263C371.359 53.2227 370.767 51.3612 369.339 50.0284L367.103 52.4243C367.675 52.9581 368.082 53.83 368.082 55.3263H371.359ZM369.379 50.0676C368.206 48.8938 366.487 47.9586 364.385 47.1878L363.257 50.2648C365.155 50.9607 366.369 51.6922 367.062 52.385L369.379 50.0676ZM364.402 47.1942C362.435 46.4481 359.908 45.5725 356.829 44.5684L355.813 47.6843C358.867 48.6801 361.34 49.5379 363.24 50.2585L364.402 47.1942ZM356.85 44.5756C354.161 43.6574 351.785 42.7123 349.716 41.7426L348.325 44.7101C350.523 45.7403 353.013 46.7286 355.791 47.6771L356.85 44.5756ZM349.716 41.7426C347.798 40.8434 346.365 39.6774 345.351 38.2688L342.691 40.1838C344.077 42.1086 345.977 43.6092 348.325 44.7101L349.716 41.7426ZM345.368 38.2936C344.415 36.917 343.859 34.9769 343.859 32.3263H340.582C340.582 35.4091 341.226 38.069 342.673 40.1591L345.368 38.2936ZM343.859 32.3263C343.859 28.5565 345.147 25.8798 347.604 24.0373L345.638 21.4154C342.228 23.9728 340.582 27.6961 340.582 32.3263H343.859ZM347.623 24.023C350.121 22.0922 354.404 20.965 360.821 20.965V17.6876C354.171 17.6876 348.987 18.8271 345.619 21.4297L347.623 24.023ZM360.821 20.965C363.268 20.965 365.608 21.1582 367.844 21.5414L368.398 18.3112C365.967 17.8945 363.44 17.6876 360.821 17.6876V20.965ZM367.889 21.5485C370.161 21.8731 372.107 22.2905 373.739 22.7925L374.703 19.6601C372.867 19.0954 370.747 18.6462 368.352 18.3041L367.889 21.5485ZM372.582 21.2263V28.4263H375.859V21.2263H372.582ZM374.739 26.8717C370.396 25.424 366.187 24.6876 362.121 24.6876V27.965C365.788 27.965 369.646 28.6287 373.703 29.9809L374.739 26.8717ZM362.121 24.6876C357.942 24.6876 354.638 25.1151 352.431 26.14L353.811 29.1126C355.336 28.4042 358.033 27.965 362.121 27.965V24.6876ZM352.455 26.1289C351.278 26.6522 350.324 27.4531 349.682 28.5468C349.049 29.6252 348.782 30.8802 348.782 32.2263H352.059C352.059 31.3058 352.242 30.6607 352.509 30.2058C352.767 29.7662 353.164 29.4004 353.786 29.1238L352.455 26.1289ZM348.782 32.2263C348.782 34.0508 349.264 35.6944 350.377 36.9928L352.865 34.8599C352.378 34.2915 352.059 33.4685 352.059 32.2263H348.782ZM350.462 37.085C351.552 38.1754 353.085 39.0452 354.932 39.7558L356.109 36.6969C354.49 36.0741 353.422 35.4106 352.779 34.7676L350.462 37.085ZM355.003 39.7809C356.803 40.3809 359.103 41.1476 361.902 42.0809L362.939 38.9717C360.139 38.0384 357.839 37.2717 356.039 36.6717L355.003 39.7809ZM361.937 42.0919C365.549 43.2083 368.41 44.3397 370.554 45.4746L372.087 42.5781C369.698 41.313 366.626 40.111 362.905 38.9607L361.937 42.0919ZM370.554 45.4746C372.629 46.5729 374.047 47.8579 374.925 49.2851L377.716 47.5675C376.461 45.5281 374.546 43.8798 372.087 42.5781L370.554 45.4746ZM374.925 49.2851C375.784 50.6806 376.282 52.62 376.282 55.2263H379.559C379.559 52.2326 378.991 49.6387 377.716 47.5675L374.925 49.2851ZM376.282 55.2263C376.282 59.4639 374.831 62.3312 372.105 64.1671L373.936 66.8855C377.743 64.3214 379.559 60.3221 379.559 55.2263H376.282ZM372.125 64.1543C369.232 66.0435 364.961 67.0876 359.121 67.0876V70.365C365.28 70.365 370.276 69.2758 373.917 66.8983L372.125 64.1543ZM388.924 52.3263L387.285 52.3558L387.314 53.965H388.924V52.3263ZM388.324 19.0263H386.685V19.0411L386.685 19.0558L388.324 19.0263ZM388.324 3.32631V1.68764H386.685V3.32631H388.324ZM396.524 3.32631H398.163V1.68764H396.524V3.32631ZM396.524 19.0263L398.162 19.0558L398.163 19.0411V19.0263H396.524ZM395.924 52.3263V53.965H397.533L397.562 52.3558L395.924 52.3263ZM387.924 67.7263H386.285V69.365H387.924V67.7263ZM387.924 61.2263V59.5876H386.285V61.2263H387.924ZM396.924 61.2263H398.562V59.5876H396.924V61.2263ZM396.924 67.7263V69.365H398.562V67.7263H396.924ZM390.562 52.2968L389.962 18.9968L386.685 19.0558L387.285 52.3558L390.562 52.2968ZM389.962 19.0263V3.32631H386.685V19.0263H389.962ZM388.324 4.96499H396.524V1.68764H388.324V4.96499ZM394.885 3.32631V19.0263H398.163V3.32631H394.885ZM394.885 18.9968L394.285 52.2968L397.562 52.3558L398.162 19.0558L394.885 18.9968ZM395.924 50.6876H388.924V53.965H395.924V50.6876ZM389.562 67.7263V61.2263H386.285V67.7263H389.562ZM387.924 62.865H396.924V59.5876H387.924V62.865ZM395.285 61.2263V67.7263H398.562V61.2263H395.285ZM396.924 66.0876H387.924V69.365H396.924V66.0876Z" fill="url(#paint0_linear_110_3298)"/>
</g>
<defs>
<filter id="filter0_d_110_3298" x="0.521484" y="0.326324" width="396.402" height="91.4" filterUnits="userSpaceOnUse" color-interpolation-filters="sRGB">
<feFlood flood-opacity="0" result="BackgroundImageFix"/>
<feColorMatrix in="SourceAlpha" type="matrix" values="0 0 0 0 0 0 0 0 0 0 0 0 0 0 0 0 0 0 127 0" result="hardAlpha"/>
<feOffset/>
<feComposite in2="hardAlpha" operator="out"/>
<feColorMatrix type="matrix" values="0 0 0 0 0 0 0 0 0 0 0 0 0 0 0 0 0 0 0.25 0"/>
<feBlend mode="normal" in2="BackgroundImageFix" result="effect1_dropShadow_110_3298"/>
<feBlend mode="normal" in="SourceGraphic" in2="effect1_dropShadow_110_3298" result="shape"/>
</filter>
<linearGradient id="paint0_linear_110_3298" x1="31.2569" y1="32.7263" x2="323.561" y2="28.0882" gradientUnits="userSpaceOnUse">
<stop stop-color="#2A519D"/>
<stop offset="0.994792" stop-color="#C33D6D"/>
</linearGradient>
</defs>
</svg>
